<svg xmlns="http://www.w3.org/2000/svg" width="85" height="107.28" viewBox="0 0 85 107.28"><defs><style>.a{fill:#1a1311;}.b{fill:#090606;}</style></defs><g transform="translate(-34.944 -17.092)"><path class="a" d="M46.562,93.021l.119.02.258.043.141.022c.086.015.175.03.265.043.047.007.094.015.142.021.108.018.22.034.333.05l.085.013.43.062.141.019.313.044.175.022c.1.014.2.028.3.04l.18.023c.111.015.224.03.337.043l.145.019.484.059.143.018.362.043c.066.007.13.014.195.023.107.011.214.025.321.037l.206.023.343.039.178.019c.17.02.339.038.511.056,2.764.3,5.691.563,7.932.745h0c.174.014.347.028.511.043h.03c.15.013.3.023.44.035l.058,0,.208.016.269.02.1.007.285.022a.123.123,0,0,0,.027,0q.471.034.944.061c.088.006.175.009.263.014.246.013.493.026.741.036l.233.009c.316.011.63.02.947.026l.161,0c.265.005.531.006.8.007h.634c.163,0,.325,0,.486-.007.077,0,.153,0,.229-.006.237,0,.472-.01.708-.019.025,0,.052,0,.078,0,.21-.008.422-.017.632-.029l.236-.012c.16-.008.319-.018.478-.027l.263-.019c.155-.011.309-.021.463-.033l.255-.022c.171-.013.34-.029.511-.044l.2-.02c.235-.022.47-.048.7-.073l.116-.014c.195-.023.391-.046.587-.073l.229-.03c.159-.022.318-.043.476-.066.084-.014.167-.025.25-.038l.471-.072c.077-.015.155-.026.233-.039.18-.031.36-.062.54-.1l.154-.026c.232-.043.464-.088.694-.135l.139-.028c.182-.038.365-.077.547-.117.076-.016.151-.034.226-.051.154-.034.308-.07.462-.107l.241-.059c.154-.037.307-.076.461-.116.073-.019.146-.037.219-.057q.28-.075.557-.153l.115-.031c.222-.063.446-.129.668-.2.055-.017.11-.034.165-.054.166-.05.33-.1.494-.156q.116-.036.228-.075l.435-.148.234-.082.442-.162c.068-.027.138-.052.209-.079.189-.072.378-.145.567-.222l.07-.027c.212-.087.423-.174.633-.264l.184-.081.442-.2.224-.1c.135-.063.269-.126.4-.191l.225-.11.416-.208c.064-.035.13-.068.194-.1q.3-.156.594-.318l0,0a32.431,32.431,0,0,0,7.678,3.379h0c.21.056.419.107.63.155l.179.038c.164.036.331.069.494.1.05.009.1.021.149.028.207.034.411.066.617.092.045.007.09.012.136.017.165.019.329.035.493.051l.178.014c.187.013.374.024.56.032l.052,0c.167.005.331.008.5.008h.111c.047,0,.092,0,.138,0,.188,0,.375-.009.562-.02l.037,0c.195-.01.39-.027.584-.045l.136-.015c.193-.019.384-.044.573-.071l.057-.008c.177-.028.352-.057.528-.091.041-.007.082-.014.125-.023.185-.036.369-.076.554-.119l.1-.024c.163-.04.327-.081.488-.126l.1-.029c.181-.052.359-.107.536-.164q.057-.018.114-.039c.162-.053.324-.11.483-.169l.068-.024c.176-.065.348-.135.521-.207l.12-.05c.173-.073.347-.151.516-.229h0c4.026-1.967,7.453-5.989,9.5-10.577q.287-.643.536-1.3l-.717-.716a11.374,11.374,0,0,1-8.086,3.992,17.59,17.59,0,0,1-5.154-.968c-.187-.064-.372-.132-.556-.2h0q-.273-.106-.539-.219l-.02-.009c-.17-.073-.34-.148-.506-.227l-.055-.026c-.154-.073-.308-.149-.46-.226-.034-.018-.068-.037-.1-.054-.134-.072-.268-.142-.4-.216l-.161-.1c-.11-.064-.22-.128-.327-.195-.082-.05-.163-.1-.242-.155s-.157-.1-.232-.152c-.154-.1-.305-.212-.452-.321l-.007-.006c.112-.168.222-.34.331-.513q.192-.3.376-.6a36.305,36.305,0,0,0,2.805-5.708c.092-.235.162-.427.162-.427a44.216,44.216,0,0,0,2.044-7.387q.147-.775.267-1.559c.016-.1.031-.191.044-.288q.123-.824.219-1.653c.007-.071.017-.143.024-.215q.1-.868.164-1.742c.05-.669.09-1.342.116-2.015.045-.934.065-1.894.057-2.87q0-1-.048-2.024-.063-1.471-.2-2.972l-.006-.062c-.081-.858-.183-1.721-.3-2.584-.15-1.07-.328-2.14-.541-3.2-.032-.161-.064-.325-.1-.485-.127-.617-.267-1.23-.416-1.84-.048-.2-.1-.4-.15-.593q-.366-1.425-.815-2.806-.316-.97-.67-1.913-.25-.666-.523-1.317a34.245,34.245,0,0,0-1.71-3.533c-.11-.2-.223-.4-.339-.594-.052-.089-.106-.177-.16-.267s-.124-.207-.188-.309c-.072-.12-.146-.237-.223-.355-.044-.068-.087-.138-.131-.206q-.134-.205-.269-.4c-.033-.047-.063-.1-.094-.142-.1-.148-.206-.3-.311-.443-.02-.028-.04-.058-.062-.086-.112-.159-.228-.316-.344-.472-.011-.015-.022-.031-.034-.045-.124-.166-.249-.329-.375-.491l-.012-.015A30.968,30.968,0,0,0,80.614,19.13a33.686,33.686,0,0,0-21.3-.589v8.293c.192-.131.385-.259.581-.381.065-.042.131-.079.2-.118.132-.081.263-.162.4-.239.078-.045.159-.087.238-.132.12-.066.241-.135.363-.2.086-.045.173-.087.26-.131.117-.059.233-.119.351-.176.09-.043.182-.083.273-.125.114-.053.229-.106.347-.157l.28-.116c.115-.047.231-.095.345-.139.1-.038.192-.072.29-.108.114-.042.229-.085.344-.125l.295-.1c.115-.036.229-.074.344-.109s.2-.057.3-.086c.116-.033.231-.065.346-.095s.2-.051.3-.075c.116-.029.232-.056.348-.082s.2-.042.306-.063.232-.047.348-.068l.31-.052c.116-.018.232-.037.349-.054l.312-.04c.116-.015.233-.028.349-.04s.209-.022.313-.03.233-.018.351-.025.209-.014.314-.018.234-.01.351-.013.209-.006.315-.007c.175,0,.351,0,.527,0,.151.007.3.015.453.026.05,0,.1.008.149.012l.3.024.18.02c.09.01.178.019.267.03.066.008.131.017.2.027.084.011.166.022.248.035s.138.022.207.034.157.025.236.04l.212.039.226.046.218.049c.073.015.145.032.217.05s.149.037.224.056.136.035.205.054l.232.063.19.058c.081.025.162.048.241.074l.174.057.255.086.143.053c.093.035.188.068.28.1.027.01.053.021.08.033a14.7,14.7,0,0,1,1.487.677l.025.013c.112.059.224.12.333.183l.061.032c.106.059.211.121.316.185l.07.041c.1.063.205.127.307.192.024.015.049.03.073.047.1.065.2.132.3.2l.069.048c.1.07.2.141.305.214l.061.045c.1.075.2.153.307.23a.589.589,0,0,0,.047.037c.1.084.21.167.316.253l.024.02a16.385,16.385,0,0,1,2.856,3.055c.24.332.474.675.7,1.032,2.661,4.3,4.6,14.638,4.708,20.779,0,.181.009.362.013.542q-3.638.791-7.2,1.88A110.327,110.327,0,0,0,59.2,63.231q-2.476,1.366-4.871,2.878c-1.6,1.008-3.16,2.072-4.676,3.2s-2.991,2.327-4.4,3.6a37.665,37.665,0,0,0-3.969,4.132,24.375,24.375,0,0,0-1.7,2.348,16.476,16.476,0,0,0-1.373,2.614,10.028,10.028,0,0,0-.742,2.957A6.223,6.223,0,0,0,39.934,90.6a10.013,10.013,0,0,0,2.673,1.465,16.568,16.568,0,0,0,2.851.766q.375.069.752.124l.008,0,.344.061M39.108,85.1a8.448,8.448,0,0,1,.612-2.474,15.033,15.033,0,0,1,1.229-2.362,22.4,22.4,0,0,1,1.582-2.205,47.9,47.9,0,0,1,7.991-7.6,87.233,87.233,0,0,1,9.257-6.207A109.563,109.563,0,0,1,69.708,59.1a98.8,98.8,0,0,1,17.475-6.143c.14,7.625-.495,15.628-2.269,21.446A47.5,47.5,0,0,0,75.6,69.285a15.387,15.387,0,0,0-11.668-.1c-4.492,1.725-9.886,8.063-11.33,9.167l1.207.929c.192-.072.385-.139.575-.2.063-.023.124-.041.188-.062.127-.042.255-.086.38-.125l.221-.066c.113-.035.226-.068.338-.1.077-.022.155-.043.233-.063.1-.029.211-.059.314-.086.08-.02.159-.037.237-.058.1-.024.2-.051.3-.072l.237-.052c.1-.021.192-.044.287-.063l.233-.046.278-.054.227-.039.267-.044c.075-.014.147-.024.221-.034l.257-.038.213-.027c.083-.011.165-.022.246-.031l.206-.022.236-.025.2-.017c.076-.006.15-.012.224-.016l.187-.016.213-.011.174-.009.2-.007.162,0,.189,0,.149,0c.095,0,.188,0,.275,0a13.425,13.425,0,0,1,6.859,1.637c3.274,1.74,7.574,4.5,9.518,5.834l-.013.008c-.173.1-.347.2-.522.294s-.346.187-.522.278q-.73.378-1.489.715-2.484.889-5.007,1.655-2.773.846-5.592,1.513l-.571.126c-2.8.617-5.417,1.077-7.663,1.368a42.841,42.841,0,0,1-8.026.274c-.744-.052-1.483-.133-2.211-.253-.162-.026-.322-.052-.482-.083a14.925,14.925,0,0,1-2.567-.7,8.484,8.484,0,0,1-2.232-1.231c-.032-.025-.059-.051-.091-.077h0a4.823,4.823,0,0,1-1.386-1.792,4.926,4.926,0,0,1-.368-2.352"/><path class="a" d="M53.654,65.036c1.558-.988,3.22-1.97,4.938-2.918a109.483,109.483,0,0,1,10.292-4.953c2.747-1.152,5.533-2.192,8.309-3.1h-.279V52.731h-1.25V49.9h.291l.63-1.8h0l-2.8-2.8-2.8,2.8.629,1.8h.292v2.829h-1.25V54.06h-.414v.249H68.966V48.957h.55l1.193-3.408-5.295-5.295L60.12,45.549l1.193,3.408h.549v5.352H59.5v2.51h-.78v.959l-1.956-1.957-2.424,2.424.546,1.561h.252v2.45H54.051v1.15h-.357v1.15h-.328v.662l.288-.182"/><path class="a" d="M72.917,27.11a16.163,16.163,0,0,1,3.423.51,13.583,13.583,0,0,0-6.734-2.057c-.1,0-.206,0-.31,0A15.781,15.781,0,0,0,60.6,28.171l1.965,2.038a17.638,17.638,0,0,1,10.347-3.1"/><path class="a" d="M64.729,81.258a17.2,17.2,0,0,1,3.713.4c-.33-.183-.655-.362-.967-.529l-.025-.012-.024-.014a11.589,11.589,0,0,0-5.98-1.4h-.193A20.059,20.059,0,0,0,55.1,80.759l1.964,1.894a21.783,21.783,0,0,1,7.667-1.395"/><path class="a" d="M104.184,49.569h0c.163,1.634.332,4.1.379,4.782.064,1.656.061,3.29-.017,4.879a51.72,51.72,0,0,1-1.149,9.15,75.141,75.141,0,0,1-2.2,7.2l-.009.006A38.024,38.024,0,0,1,98.68,80.7a14.779,14.779,0,0,0,2.466,1.045,39.5,39.5,0,0,0,3.089-7.831l.008-.025a31.23,31.23,0,0,0,.943-4.076,40.2,40.2,0,0,0,3.455-3.738,23.8,23.8,0,0,0,1.639-2.284,15.974,15.974,0,0,0,1.294-2.494,9.207,9.207,0,0,0,.67-2.721,5.731,5.731,0,0,0-.435-2.748,5.723,5.723,0,0,1,.419,2.746,9.225,9.225,0,0,1-.683,2.712,15.856,15.856,0,0,1-1.306,2.48,23.331,23.331,0,0,1-1.647,2.269,35.177,35.177,0,0,1-3.371,3.567c.19-1.124.333-2.182.431-2.99l.012-.012c.047-.4.087-.8.125-1.205.018-.186.027-.292.027-.292h0q.115-1.281.165-2.577a56.056,56.056,0,0,0-.227-8.21c0-.033,0-.065-.006-.1-.07-.9-.176-1.763-.286-2.519a15.583,15.583,0,0,1,2.164.619,9.245,9.245,0,0,1,2.454,1.338,5.717,5.717,0,0,1,1.732,2.175,5.7,5.7,0,0,0-1.722-2.186,9.221,9.221,0,0,0-2.452-1.357,15.608,15.608,0,0,0-2.182-.635c-.223-1.516-.461-2.578-.461-2.578l0,0a46.183,46.183,0,0,0-3.12-10.123,54.891,54.891,0,0,1,2.315,10.625"/><path class="a" d="M66.752,96.7c-1.428,0-2.894-.055-4.357-.162-3.574-.264-10.921-.9-15.28-1.578,7.189,2.207,16.352,2.961,18.67,3.131,8.016.593,16.356-.423,23.151-4.053-1.007-.464-1.979-.97-2.919-1.488A42.649,42.649,0,0,1,66.752,96.7"/><path class="a" d="M115.578,82.5c-2.262,5.43-6.185,9.906-10.62,12.073l-.014.007-.016.006a16.846,16.846,0,0,1-11.68,1.033q-.771-.2-1.517-.454a26.408,26.408,0,0,0,5.24,2.064,15.049,15.049,0,0,0,10.44-.922c4.4-2.15,8.086-6.755,10.033-11.873Z"/><path class="b" d="M45.719,124.153c0-.1-.142-.163-.305-.163-.183,0-.305-.183-.305-.508,0-.285-.081-.508-.2-.508-.1,0-.2-.163-.2-.346a1.84,1.84,0,0,0-.407-.874,1.962,1.962,0,0,1-.407-.753c0-.2-.833-.264-3.436-.264a15.034,15.034,0,0,1-3.578-.2.8.8,0,0,0-.589-.2c-.468,0-.732-.346-1.118-1.606-.285-.895-.305-8.478-.02-8.661.121-.061.2-.467.2-.894a1.54,1.54,0,0,1,.528-1.261l.529-.488,6.322-.061c3.5-.04,6.628,0,6.974.061a2.385,2.385,0,0,1,1.667,1.261c.305.589.366,10.226.04,10.226-.1,0-.2.183-.2.426q0,.7-.915,1.1a3.891,3.891,0,0,1-1.931.284c-1.057.02-1.22.061-1.22.407a.712.712,0,0,0,.2.528.642.642,0,0,1,.2.529c0,.2.061.386.162.386.163,0,.651.976.651,1.342,0,.142-.183.305-.386.386A4.452,4.452,0,0,1,45.719,124.153Zm2.643-10.124v-4.27H38.2l.041,4.127.061,4.107,2.195.061c1.85.04,2.175,0,2.175-.264,0-.163-.081-.305-.162-.305-.224,0-.651-1.24-.651-1.891,0-.346.1-.549.285-.549a.407.407,0,0,0,.366-.183c.04-.1.345-.224.67-.305.529-.1.672-.04,1.078.59a2.99,2.99,0,0,1,.448,1.016,1.859,1.859,0,0,0,.182.671c.1.183.285.59.448.915.244.528.325.549,1.646.549h1.383Z"/><path class="b" d="M58.12,114.029V107.32H71.945v2.439H61.353l.061,1.688.061,1.667,2.805.061,2.785.06v1.1a8.791,8.791,0,0,1-.04,1.139c-.041.02-1.3.1-2.806.163l-2.744.121-.1,2.44-.1,2.44-1.565.061-1.586.061Z"/><path class="b" d="M74.079,120.473c-.772-.366-.874-1.016-.915-5.143-.02-4.412.1-5.022,1.1-5.368a91.554,91.554,0,0,1,12.036,0c.975.346,1.1.915,1.1,5.286,0,4.311-.142,5.083-.955,5.083a.785.785,0,0,0-.569.2C85.688,120.818,74.648,120.758,74.079,120.473Zm10.47-5.225v-3.456H76.011v3.314a22.21,22.21,0,0,0,.142,3.456,33.112,33.112,0,0,0,4.269.143h4.127Z"/><path class="b" d="M91.97,120.494c-.061-.143-.082-2.6-.061-5.449l.061-5.184,5.286-.061a46.128,46.128,0,0,1,6,.142c1,.305,1.22.915,1.22,3.314,0,1.87-.041,2.053-.508,2.5a1.575,1.575,0,0,1-.895.509.729.729,0,0,0-.549.223c-.1.163-.183.163-.285-.02-.2-.325-1.423-.061-1.423.285,0,.142.244.386.549.549a7.261,7.261,0,0,1,1.342,1.057,4.145,4.145,0,0,0,.976.752,3.331,3.331,0,0,1,1.4,1.4c0,.142-.549.223-1.667.223h-1.647l-.813-.813a3.941,3.941,0,0,0-1.017-.874,9.294,9.294,0,0,1-1.423-1.2,7.331,7.331,0,0,0-1.423-1.2,7.512,7.512,0,0,0-2.176.02,6.852,6.852,0,0,0-.243,2.034l-.061,1.931-1.281.061C92.438,120.737,92.031,120.677,91.97,120.494Zm9.676-6.059c.306-.183.387-.447.387-1.423,0-.65-.081-1.22-.2-1.261-.1-.04-1.749-.04-3.66,0l-3.456.062v2.825h3.274A18.85,18.85,0,0,0,101.646,114.435Z"/><path class="b" d="M111.791,116.265v-4.473h-5.285v-2.033l6.668.041,6.648.061.061.955.061.956-2.684.06-2.663.062.02,4.126c.041,2.766-.02,4.107-.162,4.107-.122,0-.224.143-.224.306,0,.244-.264.3-1.22.3h-1.22Z"/></g></svg>