<svg xmlns="http://www.w3.org/2000/svg" width="316.542" height="117.501" viewBox="0 0 316.542 117.501"><defs><style>.a{fill:#969696;}</style></defs><g transform="translate(-267.929 -55.827)"><path d="M365.425,112.878c-.118,10.541-1.313,19.247-4.434,27.607a51.815,51.815,0,0,1-4.76,9.74c-.413.649-.638,1.187.168,1.65,5.125,2.947,10.482,4.839,16.479,3.267a16.107,16.107,0,0,0,7.019-4.2c.46-.441.971-1,.971-1l1.461,1.073s-.293.709-.518,1.211c-3.55,7.933-8.506,14.524-17.061,17.58-6.063,2.165-11.968,1.273-17.719-1.216-1.915-.829-3.754-1.837-5.612-2.795a1.94,1.94,0,0,0-1.995-.185c-7.16,3.723-14.945,5.374-22.81,6.641a87.112,87.112,0,0,1-33.431-1.212,27.543,27.543,0,0,1-9.656-4.1c-5.506-3.8-6.992-8.962-4.273-15.091a34.659,34.659,0,0,1,7.409-10.229,94.811,94.811,0,0,1,18.626-14.292A155.757,155.757,0,0,1,335.3,110.1c1.769-.476,4.746-1.141,6.543-1.5a4.549,4.549,0,0,0,0-1.145c-.674-9.287-1.818-18.509-5.468-27.161-3.232-7.66-9.011-12.544-17.3-14a24.461,24.461,0,0,0-16.651,3.138c-.507.288-1.956,1.246-1.956,1.246-.027-3.01-.034-12.839-.034-12.839s.406-.071,1.4-.3c19.084-4.433,35.844-.426,49.5,14.025,5.864,6.207,9.11,13.955,11.392,22.1A78.387,78.387,0,0,1,365.425,112.878ZM291.56,166.846a86.324,86.324,0,0,0,25.728-4.353,48.556,48.556,0,0,0,9.1-3.966c1.477-.877,1.467-1.119.068-2.038-1.491-.979-2.979-1.967-4.5-2.891-3.616-2.193-7.1-4.68-11.115-6.085-5.573-1.947-11.16-1.3-16.679.409a7.642,7.642,0,0,0-1.137.442s-1.645-1.462-1.545-1.562a70.988,70.988,0,0,1,8.815-9.121c6.2-5.283,13.209-7.358,21.192-5.353,5.456,1.37,10.252,4.219,14.957,7.2,2.153,1.364,2.092,1.383,2.683-1.023a108.316,108.316,0,0,0,2.717-26.713c-.015-2.2-.015-2.252-.015-2.252-20.7,5.489-41.62,15.457-58.19,29.039a45.206,45.206,0,0,0-11.1,12.738,11.888,11.888,0,0,0-1.88,6.988c.383,3.758,3.032,5.6,6.283,6.744C281.989,166.822,287.281,166.621,291.56,166.846Z"/><path d="M366.165,106.041c4.085-.375,8.138-.378,11.971,1.338,4.116,1.843,5.832,5.564,4.671,9.935-1.136,4.279-3.578,7.862-6.156,11.344a58.252,58.252,0,0,1-12.265,12.067,1.453,1.453,0,0,1-1.081.315c1.017-.923,2.028-1.853,3.053-2.767a62.917,62.917,0,0,0,13.817-17.362,15.43,15.43,0,0,0,1.437-3.694c1.12-4.694-.667-7.977-5.252-9.552A36.745,36.745,0,0,0,366.165,106.041Z"/><path class="a" d="M436.209,110.261l-2.768,10.927H407.664l-3.275,12.866H426.28l-2.768,10.927H402.1l-5.845,22.865H382.486l14.657-57.585Z"/><path class="a" d="M450.28,168.732q-10.211,0-15.83-6.876t-4.632-18.183a43.571,43.571,0,0,1,9.483-24.005q8.286-10.335,20.522-10.335,10.5,0,16.076,6.961t4.567,18.435a42.8,42.8,0,0,1-9.435,23.942Q462.809,168.733,450.28,168.732Zm1.141-10.631q7.425,0,11.378-8.531a50.174,50.174,0,0,0,4.669-16.724q1.128-12.882-8.534-12.882-6.876,0-11.038,8.025a46.674,46.674,0,0,0-5,17.611Q441.8,158.1,451.421,158.1Z"/><path class="a" d="M498.062,144.939l-5.856,22.907H479.289l14.657-57.585h21.3q8.058,0,12.271,1.75A12.2,12.2,0,0,1,533.874,118a16.29,16.29,0,0,1,1.73,8.921,18.514,18.514,0,0,1-3.853,9.577q-3.412,4.556-10.486,6.369l4.979,24.977H512.8l-4.038-22.907Zm6.02-24.6-3.734,14.6h8.523a30.119,30.119,0,0,0,7.335-.654,8.187,8.187,0,0,0,4.061-2.531,7.789,7.789,0,0,0,1.9-4.62q.314-3.585-1.845-5.188t-7.513-1.6Z"/><path class="a" d="M581.66,121.188h-14.5l-11.886,46.658h-13.26L553.9,121.188H539.387l2.771-10.927h42.313Z"/></g></svg>