<svg xmlns="http://www.w3.org/2000/svg" width="159.236" height="57" viewBox="0 0 159.236 57"><defs><style>.a{fill:#3b3938;}.b{fill:#a70719;}</style></defs><g transform="translate(-104.677 -4448.026)"><path class="a" d="M172.725,4496.855v.22a.94.94,0,0,0-.177.082.265.265,0,0,0-.09.08.393.393,0,0,0-.054.157,1.736,1.736,0,0,0-.021.318v3.8h-.806l-1.432-2.655c-.2-.357-.338-.642-.429-.845h-.029c.024.488.03,1,.03,1.55v1.1a1.664,1.664,0,0,0,.028.362.318.318,0,0,0,.082.162.551.551,0,0,0,.236.1v.227h-1.2v-.227a.816.816,0,0,0,.184-.068.289.289,0,0,0,.1-.115.7.7,0,0,0,.045-.178c.006-.068.006-.156.006-.264v-2.951a1.821,1.821,0,0,0-.022-.357.323.323,0,0,0-.085-.161.576.576,0,0,0-.233-.117v-.22h1.289l1.127,2.1c.069.135.164.309.273.537s.212.438.3.637h.049c-.027-.541-.034-1.141-.034-1.781v-.635c0-.154-.01-.254-.015-.326a.39.39,0,0,0-.053-.147.28.28,0,0,0-.088-.082.922.922,0,0,0-.189-.082v-.22Z"/><path class="a" d="M175.148,4501.073l-.046-.023a2.1,2.1,0,0,1-.508.4,1.165,1.165,0,0,1-.527.118,1.035,1.035,0,0,1-.472-.1.745.745,0,0,1-.307-.3.878.878,0,0,1-.106-.439.906.906,0,0,1,.46-.793,3.18,3.18,0,0,1,1.4-.362v-.324a1.35,1.35,0,0,0-.071-.492.451.451,0,0,0-.172-.24.384.384,0,0,0-.249-.069.567.567,0,0,0-.253.049.521.521,0,0,0-.194.209,1.394,1.394,0,0,0-.13.422h-.6v-.619c.195-.092.361-.166.487-.217a3.4,3.4,0,0,1,.389-.123,2.247,2.247,0,0,1,.335-.07,1.857,1.857,0,0,1,.3-.02,1.513,1.513,0,0,1,.616.106.723.723,0,0,1,.348.357,1.659,1.659,0,0,1,.111.682v1.328c0,.15,0,.268.009.348a.881.881,0,0,0,.033.183.223.223,0,0,0,.054.094.148.148,0,0,0,.074.06,1.045,1.045,0,0,0,.173.053v.227h-1.18Zm-.107-1.168a1.25,1.25,0,0,0-.731.2.63.63,0,0,0-.23.537.426.426,0,0,0,.1.324.4.4,0,0,0,.3.111.48.48,0,0,0,.276-.084.578.578,0,0,0,.207-.222.589.589,0,0,0,.078-.3Z"/><path class="a" d="M178.933,4501.107a2.107,2.107,0,0,1-.51.361,1.228,1.228,0,0,1-.485.1.891.891,0,0,1-.705-.268,1.273,1.273,0,0,1-.235-.836v-1.906h-.4v-.237a.687.687,0,0,0,.286-.1.423.423,0,0,0,.142-.186,1.259,1.259,0,0,0,.082-.3c.019-.12.033-.272.044-.458h.762v.858h.909v.424h-.909v1.539a3.253,3.253,0,0,0,.036.57.5.5,0,0,0,.112.273.259.259,0,0,0,.2.085.743.743,0,0,0,.158-.016.619.619,0,0,0,.151-.063.77.77,0,0,0,.163-.125Z"/><path class="a" d="M179.132,4501.286a.364.364,0,0,0,.216-.113.358.358,0,0,0,.08-.195,2.781,2.781,0,0,0,.024-.45v-1.582a2.065,2.065,0,0,0-.016-.271.433.433,0,0,0-.055-.162.2.2,0,0,0-.11-.1.824.824,0,0,0-.176-.055v-.23l.878-.029h.4v2.423c0,.127,0,.229,0,.3a1.021,1.021,0,0,0,.015.158.9.9,0,0,0,.027.1.268.268,0,0,0,.045.08.231.231,0,0,0,.085.066.394.394,0,0,0,.143.053v.227h-1.557Zm1.215-4.519v.84h-.874v-.84Z"/><path class="a" d="M182.737,4501.566a1.782,1.782,0,0,1-.814-.172,1.257,1.257,0,0,1-.529-.563,2.207,2.207,0,0,1-.187-.988,2.463,2.463,0,0,1,.114-.793,1.483,1.483,0,0,1,.33-.549,1.355,1.355,0,0,1,.5-.326,1.936,1.936,0,0,1,.634-.1,1.488,1.488,0,0,1,1.161.434,1.841,1.841,0,0,1,.395,1.275,2.22,2.22,0,0,1-.2.994,1.286,1.286,0,0,1-.554.6A1.783,1.783,0,0,1,182.737,4501.566Zm-.567-1.8a2.954,2.954,0,0,0,.153,1.088.5.5,0,0,0,.455.361.432.432,0,0,0,.284-.094.666.666,0,0,0,.184-.267,1.912,1.912,0,0,0,.1-.419c.016-.164.027-.343.027-.546a3.06,3.06,0,0,0-.151-1.1.492.492,0,0,0-.448-.363.454.454,0,0,0-.346.146.972.972,0,0,0-.192.444A3.888,3.888,0,0,0,182.17,4499.769Z"/><path class="a" d="M188.362,4501.513h-1.548v-.227a.342.342,0,0,0,.208-.107.48.48,0,0,0,.08-.2,3.7,3.7,0,0,0,.018-.45v-.908c0-.162-.006-.3-.008-.394a1.939,1.939,0,0,0-.035-.262.547.547,0,0,0-.055-.162.321.321,0,0,0-.079-.106.233.233,0,0,0-.1-.066.46.46,0,0,0-.143-.022.474.474,0,0,0-.253.083.712.712,0,0,0-.223.218.591.591,0,0,0-.086.3v1.314a3.8,3.8,0,0,0,.017.452.412.412,0,0,0,.079.2.349.349,0,0,0,.209.107v.227H184.9v-.227a.416.416,0,0,0,.214-.113.39.39,0,0,0,.079-.195,3.478,3.478,0,0,0,.015-.45v-1.4c0-.168,0-.289,0-.373a.776.776,0,0,0-.04-.195.287.287,0,0,0-.1-.114.523.523,0,0,0-.209-.082v-.23l.869-.029h.4l-.049.49.037.008a3.78,3.78,0,0,1,.348-.295,1.206,1.206,0,0,1,.313-.17.969.969,0,0,1,.346-.061,1.046,1.046,0,0,1,.433.078.669.669,0,0,1,.281.233,1.075,1.075,0,0,1,.153.375,2.636,2.636,0,0,1,.045.517v1.248c0,.1,0,.2,0,.287a1.064,1.064,0,0,0,.026.21.422.422,0,0,0,.05.125.3.3,0,0,0,.094.084.434.434,0,0,0,.148.054Z"/><path class="a" d="M190.719,4501.073l-.051-.023a2.01,2.01,0,0,1-.5.4,1.192,1.192,0,0,1-.53.118,1.074,1.074,0,0,1-.474-.1.785.785,0,0,1-.308-.3.92.92,0,0,1-.1-.439.9.9,0,0,1,.459-.793,3.212,3.212,0,0,1,1.4-.362v-.324a1.432,1.432,0,0,0-.067-.492.514.514,0,0,0-.175-.24.391.391,0,0,0-.25-.069.574.574,0,0,0-.254.049.583.583,0,0,0-.194.209,1.456,1.456,0,0,0-.129.422h-.6v-.619c.192-.092.356-.166.485-.217a3.874,3.874,0,0,1,.387-.123,2.25,2.25,0,0,1,.342-.07,1.785,1.785,0,0,1,.3-.02,1.475,1.475,0,0,1,.611.106.725.725,0,0,1,.349.357,1.618,1.618,0,0,1,.115.682v1.328a3.293,3.293,0,0,0,.01.348.562.562,0,0,0,.03.183.234.234,0,0,0,.051.094.182.182,0,0,0,.08.06.88.88,0,0,0,.173.053v.227h-1.184Zm-.1-1.168a1.245,1.245,0,0,0-.733.2.623.623,0,0,0-.235.537.435.435,0,0,0,.108.324.393.393,0,0,0,.3.111.484.484,0,0,0,.278-.084.63.63,0,0,0,.286-.521Z"/><path class="a" d="M193.517,4500.526a3.638,3.638,0,0,0,.019.45.407.407,0,0,0,.078.2.4.4,0,0,0,.223.113v.227h-1.561v-.227a.435.435,0,0,0,.15-.053c.034-.027.068-.042.084-.074a.57.57,0,0,0,.053-.109.982.982,0,0,0,.03-.188c0-.074.006-.189.006-.336v-2.664c0-.191-.005-.336-.006-.431a2.209,2.209,0,0,0-.019-.233.479.479,0,0,0-.046-.146.255.255,0,0,0-.1-.09.571.571,0,0,0-.2-.063v-.224l.883-.049h.4Z"/><path class="a" d="M198.961,4496.962v.986h-.432a1.2,1.2,0,0,0-.238-.568.55.55,0,0,0-.435-.182.817.817,0,0,0-.76.52,3.575,3.575,0,0,0-.257,1.535,3.456,3.456,0,0,0,.232,1.432.755.755,0,0,0,.7.488.779.779,0,0,0,.379-.086.634.634,0,0,0,.234-.254,1.646,1.646,0,0,0,.148-.467h.434v1.033a5.245,5.245,0,0,1-.634.131,4.213,4.213,0,0,1-.6.036,2.04,2.04,0,0,1-1.08-.253,1.5,1.5,0,0,1-.619-.771,3.65,3.65,0,0,1-.2-1.31,3.344,3.344,0,0,1,.234-1.291,1.828,1.828,0,0,1,.689-.84,1.932,1.932,0,0,1,1.091-.3,4.617,4.617,0,0,1,.583.037A3.929,3.929,0,0,1,198.961,4496.962Z"/><path class="a" d="M200.711,4498.579a2.325,2.325,0,0,1,.523-.391,1.017,1.017,0,0,1,.463-.113.924.924,0,0,1,.543.133.8.8,0,0,1,.277.4,2.161,2.161,0,0,1,.087.676v1.242c0,.1,0,.2,0,.287a1.655,1.655,0,0,0,.026.21.4.4,0,0,0,.054.125.237.237,0,0,0,.093.084.484.484,0,0,0,.146.054v.227h-1.541v-.227a.349.349,0,0,0,.2-.107.42.42,0,0,0,.077-.2,3.611,3.611,0,0,0,.018-.454v-.884c0-.233-.005-.411-.018-.537a.942.942,0,0,0-.073-.294.388.388,0,0,0-.124-.152.353.353,0,0,0-.205-.053.488.488,0,0,0-.253.083.634.634,0,0,0-.222.214.552.552,0,0,0-.087.3v1.623c.011.067.011.123.015.158s.021.073.033.1a.248.248,0,0,0,.045.08.233.233,0,0,0,.081.066.415.415,0,0,0,.144.053v.227h-1.559v-.227a.4.4,0,0,0,.149-.053.3.3,0,0,0,.085-.074.473.473,0,0,0,.051-.109.672.672,0,0,0,.028-.188c.008-.074.011-.189.011-.336v-2.664c0-.191,0-.336-.011-.431a1.406,1.406,0,0,0-.016-.233.339.339,0,0,0-.054-.146.188.188,0,0,0-.086-.09.612.612,0,0,0-.195-.063v-.224l.881-.049h.4v1.947Z"/><path class="a" d="M206.282,4500.892a2.2,2.2,0,0,1-.641.527,1.738,1.738,0,0,1-.732.147,1.4,1.4,0,0,1-1.118-.43,1.94,1.94,0,0,1-.375-1.293,2.149,2.149,0,0,1,.195-.953,1.357,1.357,0,0,1,.546-.612,1.815,1.815,0,0,1,1.329-.134,1.422,1.422,0,0,1,.377.2,1.259,1.259,0,0,1,.254.312,1.725,1.725,0,0,1,.18.491,3.669,3.669,0,0,1,.07.689h-2.022a1.624,1.624,0,0,0,.205.908.7.7,0,0,0,.618.295.987.987,0,0,0,.438-.1,1.606,1.606,0,0,0,.416-.347Zm-.862-1.43a2.091,2.091,0,0,0-.126-.777.385.385,0,0,0-.369-.258.434.434,0,0,0-.39.269,1.855,1.855,0,0,0-.172.766Z"/><path class="a" d="M210.32,4501.513h-1.541v-.227a.38.38,0,0,0,.2-.107.443.443,0,0,0,.077-.2,3.131,3.131,0,0,0,.022-.45v-.908a3.892,3.892,0,0,0-.013-.394,1.74,1.74,0,0,0-.03-.262.938.938,0,0,0-.056-.162.46.46,0,0,0-.08-.106.3.3,0,0,0-.1-.066.5.5,0,0,0-.148-.022.463.463,0,0,0-.247.083.618.618,0,0,0-.222.218.6.6,0,0,0-.089.3v1.314a3.8,3.8,0,0,0,.017.452.4.4,0,0,0,.081.2.361.361,0,0,0,.208.107v.227h-1.54v-.227a.371.371,0,0,0,.212-.113.382.382,0,0,0,.08-.195,2.985,2.985,0,0,0,.022-.45v-1.4c0-.168-.006-.289-.009-.373a.574.574,0,0,0-.042-.195.234.234,0,0,0-.088-.114.544.544,0,0,0-.217-.082v-.23l.871-.029h.4l-.046.49.035.008c.133-.121.25-.223.346-.295a1.317,1.317,0,0,1,.314-.17.978.978,0,0,1,.347-.061,1.054,1.054,0,0,1,.434.078.7.7,0,0,1,.279.233,1.136,1.136,0,0,1,.154.375,3.093,3.093,0,0,1,.044.517v1.248c0,.1,0,.2,0,.287a1.254,1.254,0,0,0,.025.21.4.4,0,0,0,.053.125.224.224,0,0,0,.091.084.528.528,0,0,0,.146.054Z"/><path class="a" d="M213.875,4498.589l-.542-.065-.011.034a.716.716,0,0,1,.142.259,1.113,1.113,0,0,1,.065.4,1.171,1.171,0,0,1-.338.9,1.417,1.417,0,0,1-.989.311,2.051,2.051,0,0,1-.516-.063.45.45,0,0,0-.157.332.209.209,0,0,0,.172.24,1.055,1.055,0,0,0,.272.026h.786a1.178,1.178,0,0,1,.8.227.84.84,0,0,1,.266.689,1.05,1.05,0,0,1-.195.629,1.166,1.166,0,0,1-.55.392,2.226,2.226,0,0,1-.852.143,6.263,6.263,0,0,1-.656-.029,1.887,1.887,0,0,1-.5-.131.778.778,0,0,1-.323-.24.719.719,0,0,1-.113-.407.631.631,0,0,1,.115-.355,1.036,1.036,0,0,1,.324-.285.579.579,0,0,1-.195-.235.806.806,0,0,1-.06-.326.747.747,0,0,1,.062-.3,1,1,0,0,1,.165-.252,2.564,2.564,0,0,1,.27-.251,1.011,1.011,0,0,1-.374-.393,1.223,1.223,0,0,1-.13-.576,1.2,1.2,0,0,1,.1-.539,1.01,1.01,0,0,1,.294-.375,1.244,1.244,0,0,1,.439-.209,2.107,2.107,0,0,1,.547-.065,2.622,2.622,0,0,1,.29.014c.081.014.161.027.237.043h1.15Zm-2.262,3.144a.6.6,0,0,0-.172.209.516.516,0,0,0-.057.26.391.391,0,0,0,.2.364,1.256,1.256,0,0,0,.627.117,1.127,1.127,0,0,0,.613-.141.476.476,0,0,0,.2-.4.488.488,0,0,0-.038-.2.277.277,0,0,0-.146-.133.724.724,0,0,0-.32-.053h-.547C211.819,4501.751,211.7,4501.739,211.613,4501.733Zm.112-2.507a1.374,1.374,0,0,0,.118.642.395.395,0,0,0,.69.012,1.229,1.229,0,0,0,.116-.6,1.477,1.477,0,0,0-.114-.64.372.372,0,0,0-.347-.217.364.364,0,0,0-.345.193A1.209,1.209,0,0,0,211.725,4499.226Z"/><path class="a" d="M219.2,4500.607c.084.134.151.246.212.326a1.55,1.55,0,0,0,.147.191.957.957,0,0,0,.126.106.67.67,0,0,0,.164.062v.221h-1.726v-.227a.273.273,0,0,0,.148-.053.156.156,0,0,0,.037-.1.346.346,0,0,0-.015-.109.928.928,0,0,0-.065-.161c-.041-.064-.111-.189-.223-.373l-.485-.8a2.163,2.163,0,0,0-.157-.227.464.464,0,0,0-.131-.119.417.417,0,0,0-.18-.031h-.058v1.576a1.086,1.086,0,0,0,.027.164.329.329,0,0,0,.058.111.289.289,0,0,0,.1.074.541.541,0,0,0,.158.053v.227h-1.672v-.227a.9.9,0,0,0,.184-.068.294.294,0,0,0,.1-.111.441.441,0,0,0,.039-.18,1.8,1.8,0,0,0,.014-.266v-2.943c0-.111,0-.2-.01-.274a.418.418,0,0,0-.04-.175.253.253,0,0,0-.1-.112.8.8,0,0,0-.189-.082v-.22h1.672v.22a1.1,1.1,0,0,0-.2.086.277.277,0,0,0-.088.108.51.51,0,0,0-.044.156c-.007.062-.007.162-.007.293v1.209h.063a.582.582,0,0,0,.232-.033.528.528,0,0,0,.174-.12c.06-.066.178-.195.353-.417s.3-.385.376-.5a1.146,1.146,0,0,0,.158-.294.6.6,0,0,0,.045-.226.233.233,0,0,0-.073-.186.354.354,0,0,0-.215-.076v-.22h1.628v.23a.739.739,0,0,0-.21.072.879.879,0,0,0-.2.156c-.072.069-.168.18-.285.317l-.951,1.144Z"/><path class="a" d="M219.854,4498.132h1.237v1.891c0,.218.011.392.023.511a1.008,1.008,0,0,0,.07.293.391.391,0,0,0,.138.156.352.352,0,0,0,.2.053.5.5,0,0,0,.246-.08.768.768,0,0,0,.219-.221.55.55,0,0,0,.093-.3v-1.317a3.558,3.558,0,0,0-.013-.377.872.872,0,0,0-.033-.185.265.265,0,0,0-.089-.112.444.444,0,0,0-.185-.089v-.223H223v2.389a3.059,3.059,0,0,0,.016.375.529.529,0,0,0,.032.191.272.272,0,0,0,.091.119.835.835,0,0,0,.217.08v.227l-.869.035H222.1l.023-.492-.036-.012a2.264,2.264,0,0,1-.532.408,1,1,0,0,1-.468.114.978.978,0,0,1-.538-.129.78.78,0,0,1-.29-.4,2.112,2.112,0,0,1-.091-.67v-1.248c0-.133,0-.228,0-.3a1.151,1.151,0,0,0-.014-.154c-.007-.041-.02-.076-.026-.107a.24.24,0,0,0-.047-.078.226.226,0,0,0-.085-.069.406.406,0,0,0-.144-.056Z"/><path class="a" d="M227.283,4501.513h-1.544v-.227a.355.355,0,0,0,.2-.107.443.443,0,0,0,.078-.2,3.128,3.128,0,0,0,.022-.45v-.908c0-.162,0-.3-.008-.394a2.3,2.3,0,0,0-.036-.262.474.474,0,0,0-.056-.162.387.387,0,0,0-.079-.106.244.244,0,0,0-.1-.066.523.523,0,0,0-.148-.022.493.493,0,0,0-.252.083.712.712,0,0,0-.219.218.6.6,0,0,0-.091.3v1.314a4.064,4.064,0,0,0,.02.452.455.455,0,0,0,.079.2.386.386,0,0,0,.209.107v.227h-1.535v-.227a.4.4,0,0,0,.212-.113.43.43,0,0,0,.078-.195,3.7,3.7,0,0,0,.018-.45v-1.4c0-.168,0-.289-.006-.373a.635.635,0,0,0-.039-.195.28.28,0,0,0-.093-.114.581.581,0,0,0-.214-.082v-.23l.869-.029h.4l-.046.49.037.008c.136-.121.248-.223.348-.295a1.2,1.2,0,0,1,.314-.17.961.961,0,0,1,.346-.061,1.052,1.052,0,0,1,.433.078.688.688,0,0,1,.279.233,1.157,1.157,0,0,1,.153.375,2.882,2.882,0,0,1,.046.517v1.248c0,.1,0,.2,0,.287a.841.841,0,0,0,.024.21.4.4,0,0,0,.052.125.227.227,0,0,0,.094.084.45.45,0,0,0,.148.054Z"/><path class="a" d="M230.833,4498.589l-.542-.065-.012.034a.766.766,0,0,1,.144.259,1.114,1.114,0,0,1,.064.4,1.163,1.163,0,0,1-.336.9,1.423,1.423,0,0,1-.986.311,2.028,2.028,0,0,1-.519-.063.454.454,0,0,0-.16.332.232.232,0,0,0,.041.155.239.239,0,0,0,.135.085,1.011,1.011,0,0,0,.271.026h.786a1.166,1.166,0,0,1,.8.227.84.84,0,0,1,.265.689,1.081,1.081,0,0,1-.19.629,1.167,1.167,0,0,1-.552.392,2.218,2.218,0,0,1-.853.143,6.238,6.238,0,0,1-.656-.029,1.982,1.982,0,0,1-.5-.131.773.773,0,0,1-.31-.24.656.656,0,0,1-.116-.407.583.583,0,0,1,.116-.355.937.937,0,0,1,.32-.285.615.615,0,0,1-.2-.235.758.758,0,0,1-.061-.326.782.782,0,0,1,.061-.3.942.942,0,0,1,.169-.252,2.343,2.343,0,0,1,.268-.251,1.021,1.021,0,0,1-.375-.393,1.2,1.2,0,0,1-.131-.576,1.246,1.246,0,0,1,.108-.539.947.947,0,0,1,.295-.375,1.172,1.172,0,0,1,.437-.209,2.129,2.129,0,0,1,.545-.065,2.49,2.49,0,0,1,.288.014c.083.014.163.027.246.043h1.144Zm-2.262,3.144a.618.618,0,0,0-.173.209.549.549,0,0,0-.058.26.4.4,0,0,0,.2.364,1.236,1.236,0,0,0,.626.117,1.114,1.114,0,0,0,.611-.141.478.478,0,0,0,.207-.4.506.506,0,0,0-.036-.2.29.29,0,0,0-.15-.133.7.7,0,0,0-.315-.053h-.547C228.783,4501.751,228.662,4501.739,228.571,4501.733Zm.115-2.507a1.408,1.408,0,0,0,.113.642.377.377,0,0,0,.355.209.367.367,0,0,0,.337-.2,1.218,1.218,0,0,0,.115-.6,1.5,1.5,0,0,0-.111-.64.4.4,0,0,0-.7-.024A1.238,1.238,0,0,0,228.686,4499.226Z"/><path class="a" d="M235.422,4497.712a2.834,2.834,0,0,0-.02-.359.316.316,0,0,0-.086-.161.569.569,0,0,0-.232-.117v-.22h1.4v.22a.806.806,0,0,0-.18.078.318.318,0,0,0-.1.108.7.7,0,0,0-.042.18c-.005.074-.014.166-.014.271v2.131a3.309,3.309,0,0,1-.06.711,1.466,1.466,0,0,1-.2.482,1.11,1.11,0,0,1-.332.311,1.436,1.436,0,0,1-.447.17,2.47,2.47,0,0,1-.557.049,2.679,2.679,0,0,1-.764-.1,1.188,1.188,0,0,1-.509-.307,1.278,1.278,0,0,1-.292-.494,2.5,2.5,0,0,1-.089-.744v-2.207c0-.111-.007-.2-.011-.274a.416.416,0,0,0-.042-.175.233.233,0,0,0-.1-.112.852.852,0,0,0-.19-.082v-.22h1.674v.22a.862.862,0,0,0-.2.084.3.3,0,0,0-.093.1.476.476,0,0,0-.044.162,2.32,2.32,0,0,0-.015.293v2.252a3.264,3.264,0,0,0,.036.492,1.078,1.078,0,0,0,.112.377.617.617,0,0,0,.235.248.8.8,0,0,0,.389.086.7.7,0,0,0,.481-.145.74.74,0,0,0,.227-.388,3.488,3.488,0,0,0,.065-.748Z"/><path class="a" d="M240.455,4501.513h-1.546v-.227a.365.365,0,0,0,.208-.107.483.483,0,0,0,.072-.2,2.668,2.668,0,0,0,.024-.45v-.908c0-.162-.005-.3-.007-.394a1.62,1.62,0,0,0-.038-.262.43.43,0,0,0-.051-.162.371.371,0,0,0-.081-.106.257.257,0,0,0-.106-.066.467.467,0,0,0-.141-.022.459.459,0,0,0-.253.083.663.663,0,0,0-.223.218.576.576,0,0,0-.089.3v1.314a3.827,3.827,0,0,0,.02.452.432.432,0,0,0,.078.2.358.358,0,0,0,.208.107v.227h-1.539v-.227a.385.385,0,0,0,.213-.113.392.392,0,0,0,.083-.195,3.9,3.9,0,0,0,.015-.45v-1.4c0-.168,0-.289,0-.373a.6.6,0,0,0-.042-.195.27.27,0,0,0-.089-.114.58.58,0,0,0-.215-.082v-.23l.869-.029h.4l-.05.49.041.008a4.232,4.232,0,0,1,.347-.295,1.292,1.292,0,0,1,.313-.17.985.985,0,0,1,.346-.061,1.054,1.054,0,0,1,.434.078.654.654,0,0,1,.278.233,1,1,0,0,1,.153.375,2.3,2.3,0,0,1,.046.517v1.248c0,.1,0,.2,0,.287a1.255,1.255,0,0,0,.025.21.757.757,0,0,0,.052.125.3.3,0,0,0,.1.084.407.407,0,0,0,.146.054Z"/><path class="a" d="M240.925,4501.286a.378.378,0,0,0,.213-.113.4.4,0,0,0,.085-.195,3.27,3.27,0,0,0,.019-.45v-1.582a1.929,1.929,0,0,0-.015-.271.386.386,0,0,0-.055-.162.233.233,0,0,0-.108-.1.978.978,0,0,0-.176-.055v-.23l.873-.029h.4v2.423c0,.127,0,.229.006.3a1.308,1.308,0,0,0,.011.158.471.471,0,0,0,.029.1.543.543,0,0,0,.047.08.209.209,0,0,0,.081.066.374.374,0,0,0,.143.053v.227h-1.554Zm1.21-4.519v.84h-.874v-.84Z"/><path class="a" d="M244.183,4498.132v.223a.411.411,0,0,0-.221.091.237.237,0,0,0-.071.184,1.629,1.629,0,0,0,.085.428l.459,1.49.5-1.307a2.949,2.949,0,0,0,.1-.287.91.91,0,0,0,.033-.248.377.377,0,0,0-.073-.232.351.351,0,0,0-.223-.119v-.223h1.243v.225a.732.732,0,0,0-.15.07.818.818,0,0,0-.105.123,1.819,1.819,0,0,0-.118.211c-.05.1-.112.238-.188.427l-1,2.364h-.6l-.841-2.6a3.621,3.621,0,0,0-.141-.369.5.5,0,0,0-.12-.154.3.3,0,0,0-.161-.072v-.223Z"/><path class="a" d="M248.962,4500.892a2.14,2.14,0,0,1-.637.527,1.748,1.748,0,0,1-.737.147,1.379,1.379,0,0,1-1.112-.43,1.935,1.935,0,0,1-.378-1.293,2.207,2.207,0,0,1,.193-.953,1.39,1.39,0,0,1,.548-.612,1.636,1.636,0,0,1,.822-.2,1.587,1.587,0,0,1,.505.069,1.283,1.283,0,0,1,.375.2,1.093,1.093,0,0,1,.261.312,1.7,1.7,0,0,1,.18.491,3.18,3.18,0,0,1,.067.689h-2.015a1.629,1.629,0,0,0,.2.908.7.7,0,0,0,.619.295.98.98,0,0,0,.435-.1,1.567,1.567,0,0,0,.42-.347Zm-.857-1.43a2.111,2.111,0,0,0-.126-.777.388.388,0,0,0-.368-.258.438.438,0,0,0-.393.269,1.952,1.952,0,0,0-.174.766Z"/><path class="a" d="M250.735,4498.618l.041.006a1.622,1.622,0,0,1,.473-.424,1.164,1.164,0,0,1,.535-.125,2.066,2.066,0,0,1,.411.041v.946h-.577a.749.749,0,0,0-.145-.309.292.292,0,0,0-.232-.1.351.351,0,0,0-.158.043.724.724,0,0,0-.153.127.406.406,0,0,0-.1.176.872.872,0,0,0-.04.17,2.428,2.428,0,0,0-.009.273v1.084a3.736,3.736,0,0,0,.02.456.408.408,0,0,0,.091.209.483.483,0,0,0,.227.1v.227h-1.571v-.227a.375.375,0,0,0,.212-.113.454.454,0,0,0,.081-.195,3.112,3.112,0,0,0,.019-.45v-1.4c0-.168,0-.289-.006-.373a.73.73,0,0,0-.041-.195.289.289,0,0,0-.09-.114.588.588,0,0,0-.214-.082v-.23l.87-.029h.4Z"/><path class="a" d="M252.965,4500.591a.861.861,0,0,0,.243.469.618.618,0,0,0,.443.158.528.528,0,0,0,.361-.117.463.463,0,0,0,.12-.336.474.474,0,0,0-.055-.244.615.615,0,0,0-.186-.19,2.967,2.967,0,0,0-.44-.236,2.181,2.181,0,0,1-.327-.184,1.314,1.314,0,0,1-.274-.223,1.03,1.03,0,0,1-.179-.279.808.808,0,0,1-.066-.338.86.86,0,0,1,.168-.533.979.979,0,0,1,.472-.344,1.865,1.865,0,0,1,.7-.119,4.184,4.184,0,0,1,.452.02c.15.012.343.045.577.086v.8h-.42a1.225,1.225,0,0,0-.162-.338.458.458,0,0,0-.19-.166.645.645,0,0,0-.252-.049.493.493,0,0,0-.336.105.363.363,0,0,0-.125.285.485.485,0,0,0,.049.223.551.551,0,0,0,.158.18,2.585,2.585,0,0,0,.442.232,2.419,2.419,0,0,1,.489.278,1.087,1.087,0,0,1,.286.336.95.95,0,0,1,.1.441,1.091,1.091,0,0,1-.1.476.894.894,0,0,1-.267.33,1.119,1.119,0,0,1-.413.192,1.872,1.872,0,0,1-.528.061,4.981,4.981,0,0,1-1.168-.157v-.818Z"/><path class="a" d="M255.543,4501.286a.385.385,0,0,0,.216-.113.39.39,0,0,0,.078-.195,2.892,2.892,0,0,0,.021-.45v-1.582a2.367,2.367,0,0,0-.013-.271.308.308,0,0,0-.056-.162.221.221,0,0,0-.107-.1.965.965,0,0,0-.175-.055v-.23l.874-.029h.4v2.423c0,.127,0,.229.008.3s.007.123.009.158a.731.731,0,0,0,.027.1.288.288,0,0,0,.05.08.2.2,0,0,0,.079.066.435.435,0,0,0,.146.053v.227h-1.556Zm1.212-4.519v.84h-.872v-.84Z"/><path class="a" d="M259.774,4501.107a2.289,2.289,0,0,1-.508.361,1.24,1.24,0,0,1-.483.1.887.887,0,0,1-.707-.268,1.25,1.25,0,0,1-.237-.836v-1.906h-.4v-.237a.725.725,0,0,0,.289-.1.434.434,0,0,0,.14-.186,1.253,1.253,0,0,0,.083-.3,4.044,4.044,0,0,0,.044-.458h.761v.858h.9v.424h-.9v1.539a3.667,3.667,0,0,0,.033.57.532.532,0,0,0,.113.273.273.273,0,0,0,.2.085.726.726,0,0,0,.159-.016.572.572,0,0,0,.148-.063.763.763,0,0,0,.168-.125Z"/><path class="a" d="M261.583,4501.669a4.471,4.471,0,0,1-.39.772,1.435,1.435,0,0,1-.394.427.942.942,0,0,1-.527.143,1.466,1.466,0,0,1-.448-.069v-.785h.36a.467.467,0,0,0,.1.223.223.223,0,0,0,.175.058.342.342,0,0,0,.218-.068,1.1,1.1,0,0,0,.219-.269,4.92,4.92,0,0,0,.3-.588h-.181l-.83-2.563a3.008,3.008,0,0,0-.141-.369.481.481,0,0,0-.119-.154.284.284,0,0,0-.159-.072v-.223h1.582v.223a.4.4,0,0,0-.212.091.23.23,0,0,0-.076.184,1.494,1.494,0,0,0,.087.428l.456,1.49.5-1.307a1.712,1.712,0,0,0,.1-.287.911.911,0,0,0,.033-.248.35.35,0,0,0-.076-.232.344.344,0,0,0-.216-.119v-.223h1.239v.225a.652.652,0,0,0-.153.07.876.876,0,0,0-.1.123,2.174,2.174,0,0,0-.118.211c-.046.1-.11.238-.191.427Z"/><path class="b" d="M123.533,4504.946h-.992v-3.7h-.685v-.592a1.244,1.244,0,0,0,1.022-.574h.655Z"/><path class="b" d="M128.706,4502.366a3.555,3.555,0,0,1-.51,1.811,1.786,1.786,0,0,1-1.6.834,4.526,4.526,0,0,1-.813-.1v-.842a3.946,3.946,0,0,0,.813.119.87.87,0,0,0,.737-.326,1.331,1.331,0,0,0,.252-.787.881.881,0,0,1-.407.313,1.321,1.321,0,0,1-.512.115,1.479,1.479,0,0,1-1.181-.461,1.71,1.71,0,0,1-.4-1.213,1.865,1.865,0,0,1,.471-1.336,2.06,2.06,0,0,1,2.681.024,2.31,2.31,0,0,1,.468,1.416c0,.074,0,.15,0,.242C128.71,4502.255,128.706,4502.317,128.706,4502.366Zm-1.063-.611c0-.662-.245-1-.729-1s-.725.336-.725,1,.242,1,.725,1a.612.612,0,0,0,.57-.33A1.3,1.3,0,0,0,127.643,4501.755Z"/><path class="b" d="M132.717,4503.54a1.347,1.347,0,0,1-.5,1.111,1.865,1.865,0,0,1-1.2.375,1.788,1.788,0,0,1-1.731-.892l.673-.4a.784.784,0,0,0,.4.4,1.172,1.172,0,0,0,.566.14.729.729,0,0,0,.573-.228.849.849,0,0,0,.2-.6.706.706,0,0,0-.206-.529.8.8,0,0,0-.555-.182h-.488v-.687h.521c.453,0,.675-.211.675-.627,0-.455-.191-.674-.573-.674a.641.641,0,0,0-.653.363h-.872a1.269,1.269,0,0,1,.549-.834,1.711,1.711,0,0,1,.976-.267,1.891,1.891,0,0,1,1.092.291,1.125,1.125,0,0,1,.489.973,1.168,1.168,0,0,1-.189.671,1.014,1.014,0,0,1-.566.4A1.17,1.17,0,0,1,132.717,4503.54Z"/><path class="b" d="M136,4504.946h-1v-3.7h-.679v-.592a1.247,1.247,0,0,0,1.025-.574H136Z"/><path class="b" d="M124.827,4480.6c-1.089,1.449-2.977,1.7-2.82,2.238.388,1.305,4.6-.555,5.968-4.234.392-1.057.818-.873.818-.873s1.253.113-1.167,3.689c-.532.783-.1,1-.1,1s.548.328,1.294-.631c1.879-2.416,1.477-4.162,2.108-3.891,1.182.5-1.03,4.221-.251,4.553.576.244,1.115-.4,1.609-2.135.442-1.56.162-2.474.705-2.449,1.042.045-.066,4.672,1.9,4.629.815-.016-.789-4.484.455-4.762,0,0,.4-.13.554,1.1a9.4,9.4,0,0,0,.538,2.207c.215.594,1.035,2.213,1.861,1.791.681-.344-1.145-2.236-.944-5.494,0-.01.13-1.469-1.214-1.615-.741-.086-2.009.41-1.82-.3.154-.557,2.611-.6,2.348-1.877-.1-.488-.888-.135-1.535.146-.677.286-1.452.25-1.518-.1s.4-.477,1-.674c.668-.223,1.308-.611,1.174-1.205-.188-.852-2.716.773-2.716-.352.091-.525,1.969-.513,1.566-1.57-.331-.883-1.938.592-4.856-.131-1.442-.353-1.116.865-1.116.865.727,1.133,2.923.075,2.646,1.131-.233.889-2.346.057-2.505,1.016-.2,1.2,2.782.24,3.1,1.252.673,2.146-.407,2.207-.731,2.156-.749-.111-.1-1.623-1.106-1.619-.854.014-.06,1.816-1.2,1.684-.935-.1.162-1.467-1.041-1.9-.7-.244-1.457-.508-1.549-.879-.136-.525,1.064-.853.979-1.838-.091-1.017-4.208-2.6-4.862-1.529-.551.9.792,1.143.792,1.143,1.268.287,2.53.705,1.421,1.632-1.667,1.4,2,1.907,1.97,2.61-.024.56-.9.312-.972.283-.734-.264-1.262.113-1.3.447-.071.571-.388.5-.82.487-.362-.008-1.418-.463-.223-.963.506-.211.507-.614.421-.76-.285-.492-2.293-.555-2.293-.555s-.73-.072-.9.434c-.144.439.432.7.432.7.933.586.075,1.07-.09,1.143-.272.127-.557.244-.467.672.061.33.353.515.872.546l1.718.1c.006,0,.576.021.337.607a4.02,4.02,0,0,1-1.768,2.038c-.7.423-.062.867.5.769,0,0,1.387.1,3.106-3.154.362-.7.819-.449.819-.449S126.847,4477.894,124.827,4480.6Z"/><path class="b" d="M150.744,4463.171c-3.025-3.4-5.112-3.26-5.112-3.26-2.445-.3-6.411,3.469-8.172,5.281l-.262-1.4c5.913-5.174,4.935-7.931,4.935-7.931-2.495-.114-5.4,4.541-6.793,7.054a8.314,8.314,0,0,0-1.262-.342c5.915-7.423,1.493-10.875,1.493-10.875-1.4-1.42-6.434-3.591-6.618-3.668a.062.062,0,0,0-.026.012c-.009-.006-.015-.012-.019-.012a28.45,28.45,0,0,0-6.628,3.668s-4.318,3.42,1.505,10.875a8.516,8.516,0,0,0-1.274.342c-1.382-2.513-4.288-7.168-6.785-7.054,0,0-.986,2.757,4.933,7.931l-.259,1.4c-1.76-1.812-5.73-5.578-8.176-5.281,0,0-2.084-.14-5.113,3.26a21.586,21.586,0,0,1-2.434,2.629v.006a21.545,21.545,0,0,1,.7,3.507c.8,4.479,2.66,5.46,2.66,5.46,2,1.572,8.177.164,10.709-.51l-.343,1.865c-9.93.435-10.348,3.746-10.348,3.746s2.269,2.342,10.04-2.045l-.339,1.869c-.106.035-4.381,1.6-5.972,2.885-2.354,1.9-.854,5.615.324,7.709,0,0,1.318,2.592,1.635,3.592h.005a21.728,21.728,0,0,1,3.546.486c4.5.7,5.986-.107,5.986-.107,3.4-1.039,3.034-5.627,2.646-7.811.637-.074,1.282-.115,1.906-.129-.461,2.1-1.106,6.514,1.087,8.657h.023c2.185-2.143,1.55-6.555,1.087-8.657.626.014,1.262.055,1.908.129-.392,2.184-.761,6.772,2.647,7.811,0,0,1.477.8,5.977.107a21.869,21.869,0,0,1,3.549-.486h.009a39.233,39.233,0,0,1,1.629-3.592c1.184-2.094,2.708-5.756.327-7.709-1.589-1.305-5.866-2.85-5.973-2.885l-.336-1.869c7.769,4.387,10.037,2.045,10.037,2.045s-.419-3.311-10.348-3.746l-.339-1.865c2.524.674,8.709,2.082,10.712.51,0,0,1.85-.981,2.651-5.46a21.25,21.25,0,0,1,.7-3.507v-.006A22.018,22.018,0,0,1,150.744,4463.171Zm-19.076.527,0,.047a4.707,4.707,0,0,1-.982.432l-.585-7.209a3.9,3.9,0,0,0,.841-.328Zm-2.75-8.836c1.655-.007,1.924.951,1.924.951a3.507,3.507,0,0,1-1.924.538,3.583,3.583,0,0,1-1.938-.538S127.253,4454.855,128.918,4454.862Zm1.027,9.5a6.625,6.625,0,0,1-2.029,0l.579-7.258s.36.021.86,0Zm-3.756-.659.725-7.058a4,4,0,0,0,.835.328l-.578,7.209a4.494,4.494,0,0,1-.983-.432Zm-1.514-.025a5.5,5.5,0,0,0,4.252,1.664,5.63,5.63,0,0,0,4.249-1.664,7.116,7.116,0,0,1,2.641.764c-1.315,1.5-3.953,2.484-6.89,2.548-2.933-.064-5.575-1.043-6.892-2.548A7.2,7.2,0,0,1,124.675,4463.673Zm15.518,23.254a34.108,34.108,0,0,0-22.525,0l3.912-21.442c2.48,2.612,9.984,4.141,14.7,0Z"/><path class="a" d="M189.294,4465.769a6.147,6.147,0,0,1,.835-.307v-.367h-6.353v.357a5.112,5.112,0,0,1,.877.319,1.93,1.93,0,0,1,.681.545,2.218,2.218,0,0,1,.383.939,10.12,10.12,0,0,1,.105,1.687v3.178c0,3.233.071,6.225.206,8.891l.026.461H185.02l-.121-.235c-.535-1.017-1.134-2.086-1.787-3.17-.665-1.113-1.217-2.011-1.64-2.673l-6.643-10.3h-7.072v.351a3.376,3.376,0,0,1,1.249.565,1.987,1.987,0,0,1,.662,1.039,8.789,8.789,0,0,1,.137,1.877v14.767a13.2,13.2,0,0,1-.058,1.381,2.669,2.669,0,0,1-.317,1.045,1.777,1.777,0,0,1-.793.733,4.98,4.98,0,0,1-.88.322v.355h6.356v-.351a3.492,3.492,0,0,1-1.24-.535,2.008,2.008,0,0,1-.665-1.039,7.687,7.687,0,0,1-.162-1.911V4478.2c0-2.713-.061-5.312-.19-7.734l-.02-.461h.892l.124.228c.536,1,1.369,2.383,2.547,4.207l8.48,13.088h4.189v-18.588a8.716,8.716,0,0,1,.119-1.691,2.236,2.236,0,0,1,.429-.965A2.067,2.067,0,0,1,189.294,4465.769Z"/><path class="a" d="M211.089,4482.649h-1.841a8,8,0,0,1-.881,2.151,3.736,3.736,0,0,1-1.589,1.418,5.8,5.8,0,0,1-2.461.465,4.958,4.958,0,0,1-4.531-2.657c-.982-1.675-1.474-4.164-1.474-7.38,0-3.461.54-6.118,1.614-7.9a5.449,5.449,0,0,1,4.947-2.8,4.123,4.123,0,0,1,2.9,1.032,5.666,5.666,0,0,1,1.5,2.728h1.822v-4.17a24.388,24.388,0,0,0-2.882-.523,28.274,28.274,0,0,0-3.45-.188,13.193,13.193,0,0,0-6.337,1.434,9.444,9.444,0,0,0-3.963,4.037,13.642,13.642,0,0,0-1.355,6.25,15.4,15.4,0,0,0,1.153,6.369,7.59,7.59,0,0,0,3.513,3.652,13.9,13.9,0,0,0,6.3,1.239,30.772,30.772,0,0,0,3.564-.2c1.061-.127,2.223-.315,3.456-.576Z"/><path class="a" d="M226.166,4478.552l2.926,4.033c.642.875,1.1,1.535,1.336,1.9a4.155,4.155,0,0,1,.462.869,2.266,2.266,0,0,1,.106.676,1.107,1.107,0,0,1-.38.856,1.715,1.715,0,0,1-.728.32v.32h9.491v-.338a5.659,5.659,0,0,1-.732-.273,3.806,3.806,0,0,1-.863-.594,10.372,10.372,0,0,1-.934-.988c-.34-.412-.757-.949-1.269-1.654l-6.9-9.455,6.007-6.008a21.906,21.906,0,0,1,1.738-1.608,6.465,6.465,0,0,1,1.276-.834,4.994,4.994,0,0,1,.988-.322v-.361h-8.9v.283a2.319,2.319,0,0,1,1.1.416,1.559,1.559,0,0,1,.623,1.289,3.2,3.2,0,0,1-.3,1.316,7.931,7.931,0,0,1-1.012,1.543c-.476.6-1.223,1.424-2.286,2.541s-1.761,1.8-2.146,2.112a3.909,3.909,0,0,1-1.2.693,5.061,5.061,0,0,1-1.534.19h-.84v-6.518a10.1,10.1,0,0,1,.084-1.519,2.561,2.561,0,0,1,.31-.94,2.035,2.035,0,0,1,.708-.685,3.959,3.959,0,0,1,.965-.37v-.351H215.1v.347a5.062,5.062,0,0,1,.9.336,1.924,1.924,0,0,1,.787.723,2.49,2.49,0,0,1,.308,1.072c.034.4.05.868.05,1.387v14.721a13.177,13.177,0,0,1-.063,1.4,2.755,2.755,0,0,1-.31,1.057,1.815,1.815,0,0,1-.8.724,5.13,5.13,0,0,1-.872.309v.355h9.17v-.347a4.977,4.977,0,0,1-.675-.223,2.31,2.31,0,0,1-.74-.48,1.873,1.873,0,0,1-.437-.707,3.72,3.72,0,0,1-.179-.948c-.024-.349-.036-.732-.036-1.144v-7.215h.82a2.978,2.978,0,0,1,1.264.219,2.947,2.947,0,0,1,.916.681A11.023,11.023,0,0,1,226.166,4478.552Z"/><path class="a" d="M263.068,4465.761a4.776,4.776,0,0,1,.845-.309v-.357h-7.541v.351a3.363,3.363,0,0,1,1.257.569,1.955,1.955,0,0,1,.632,1.041,8.984,8.984,0,0,1,.135,1.886v10.9a13.617,13.617,0,0,1-.411,3.877,4.186,4.186,0,0,1-1.51,2.182,5.3,5.3,0,0,1-3.167.785,5.775,5.775,0,0,1-2.5-.477,3.652,3.652,0,0,1-1.587-1.373,5.65,5.65,0,0,1-.763-2.07,15.3,15.3,0,0,1-.2-2.533v-11.27a10.425,10.425,0,0,1,.084-1.516,2.558,2.558,0,0,1,.33-.97,1.972,1.972,0,0,1,.717-.668,4.165,4.165,0,0,1,.935-.36v-.351h-9.167v.351a4.723,4.723,0,0,1,.9.332,1.937,1.937,0,0,1,.785.723,2.53,2.53,0,0,1,.309,1.08c.035.381.048.848.048,1.379v11.051a9.942,9.942,0,0,0,.538,3.578,5.711,5.711,0,0,0,1.618,2.3,7.279,7.279,0,0,0,2.877,1.43,17.922,17.922,0,0,0,4.478.49,19.686,19.686,0,0,0,3.278-.254,9.225,9.225,0,0,0,2.567-.813,5.707,5.707,0,0,0,1.855-1.459,5.775,5.775,0,0,0,1.1-2.238,13.451,13.451,0,0,0,.369-3.426v-10.674a12.288,12.288,0,0,1,.063-1.4,2.608,2.608,0,0,1,.327-1.064A1.843,1.843,0,0,1,263.068,4465.761Z"/></g></svg>