<svg xmlns="http://www.w3.org/2000/svg" width="360" height="55.607" viewBox="0 0 360 55.607"><defs><style>.a{fill:#1a1311;}</style></defs><g transform="translate(-364.973 -4448.722)"><path class="a" d="M371.22,4500.747a.821.821,0,0,1,.081.014c.059.008.117.019.178.029.031,0,.063.01.1.016.059.01.119.019.181.027l.1.016c.074.011.15.023.228.033l.058.012c.1.011.195.025.3.041l.1.011c.07.012.14.022.213.032.04,0,.08.009.121.015l.2.028c.041,0,.083.009.124.015.076.012.154.02.231.03l.1.011c.109.016.219.028.331.041l.1.014.249.027.133.018c.073.006.146.015.219.023l.142.018.235.025.122.014c.116.012.232.027.35.037,1.894.207,3.9.387,5.434.512h0l.35.027a.066.066,0,0,0,.019,0c.105.01.205.018.3.025a.278.278,0,0,1,.041,0l.143.01c.062,0,.123.01.183.016l.069,0,.2.015a.054.054,0,0,0,.018,0c.215.016.431.029.647.043.06,0,.12,0,.18.01.169.008.338.016.508.021.053,0,.106.006.159.008.217.008.433.014.648.02h.112c.181,0,.363.006.545.006l.094,0,.157,0h.184l.333-.006.156,0,.484-.016a.481.481,0,0,0,.054,0l.434-.017.161-.01c.11-.006.219-.012.328-.02l.181-.011c.105-.006.211-.016.316-.024l.175-.013c.117-.008.234-.022.351-.032l.134-.013c.162-.016.322-.032.482-.051.027,0,.054-.006.08-.01.134-.014.269-.031.4-.049l.157-.021.327-.045.171-.026.321-.05.161-.026.37-.064c.035-.008.07-.012.106-.02.158-.029.317-.058.475-.091l.1-.02c.124-.027.249-.051.374-.08l.155-.033c.107-.026.211-.049.317-.077.055-.011.11-.025.165-.039.1-.025.212-.052.316-.078.05-.013.1-.025.15-.041q.192-.049.381-.1a.713.713,0,0,0,.079-.02c.154-.045.306-.089.458-.136.038-.01.076-.022.114-.036.112-.033.226-.07.338-.107.052-.018.1-.033.156-.051.1-.035.2-.066.3-.1.054-.02.107-.039.161-.057l.3-.111c.046-.018.1-.035.142-.055.13-.047.261-.1.39-.15.016-.008.032-.014.049-.022.144-.056.288-.117.432-.178l.127-.058c.1-.043.2-.088.3-.133.052-.023.1-.049.153-.072.093-.043.186-.086.277-.131l.154-.074c.1-.047.19-.1.285-.145l.134-.068c.136-.071.271-.143.406-.219h0a22.255,22.255,0,0,0,5.26,2.315h0c.144.039.288.074.431.1.041.01.082.017.123.027.114.026.226.047.339.069l.1.017c.141.026.281.047.422.065.031,0,.062.006.094.009.112.014.225.026.336.036.042,0,.082.007.124.009.128.01.255.018.383.022l.036,0c.113,0,.227.006.34.006l.076,0h.1c.128,0,.257-.006.384-.014h.026c.135-.008.268-.019.4-.033.031,0,.062,0,.093-.008.131-.016.263-.031.393-.051l.037-.006c.122-.017.242-.039.362-.06.029-.006.057-.01.086-.018.128-.023.253-.05.38-.08l.065-.017c.113-.026.225-.055.335-.086l.072-.02c.123-.035.245-.072.367-.111l.079-.028c.112-.035.221-.076.33-.117a.424.424,0,0,0,.048-.015c.12-.045.238-.094.356-.141.027-.012.054-.021.083-.035.119-.051.237-.1.353-.158h0a14.69,14.69,0,0,0,6.507-7.246c.13-.293.253-.588.366-.889l-.491-.49a7.8,7.8,0,0,1-5.54,2.736,12.1,12.1,0,0,1-3.53-.664c-.128-.045-.255-.09-.382-.139h0c-.124-.049-.247-.1-.369-.15l-.014-.006c-.118-.051-.233-.1-.348-.156l-.037-.018c-.1-.051-.21-.1-.314-.156-.024-.01-.046-.023-.07-.035-.092-.049-.184-.1-.273-.149-.038-.019-.074-.043-.11-.064-.077-.043-.152-.088-.225-.133s-.111-.072-.167-.107l-.159-.1c-.1-.072-.209-.144-.309-.221l-.005,0c.078-.115.152-.232.227-.349.087-.137.174-.276.258-.414a24.884,24.884,0,0,0,1.922-3.91c.063-.162.11-.293.11-.293a30.4,30.4,0,0,0,1.4-5.063c.067-.353.128-.711.183-1.068.011-.065.02-.131.03-.195q.084-.565.15-1.133c.006-.049.01-.1.016-.149.044-.4.082-.795.113-1.191.034-.459.062-.922.079-1.383q.046-.962.041-1.965c0-.459-.014-.92-.034-1.388-.029-.672-.075-1.352-.138-2.036l0-.043c-.056-.587-.125-1.179-.208-1.769-.1-.732-.226-1.467-.371-2.195-.022-.112-.044-.223-.068-.334-.087-.422-.183-.844-.285-1.26-.033-.137-.067-.272-.1-.408-.168-.649-.354-1.291-.559-1.92-.143-.446-.3-.883-.459-1.313q-.172-.456-.359-.9a24,24,0,0,0-1.171-2.422c-.076-.135-.153-.272-.232-.406-.036-.061-.074-.121-.11-.182s-.085-.142-.129-.213-.1-.162-.153-.242l-.089-.143c-.061-.091-.124-.183-.186-.277l-.064-.1c-.07-.1-.141-.205-.212-.3-.013-.02-.028-.039-.042-.059-.078-.107-.157-.217-.237-.322l-.023-.031c-.085-.116-.17-.225-.257-.336l-.008-.012a21.2,21.2,0,0,0-9.69-6.842,23.059,23.059,0,0,0-14.592-.4v5.682c.131-.09.264-.178.4-.26.044-.03.089-.055.134-.082.09-.057.179-.11.271-.164.054-.03.11-.059.163-.092.083-.043.165-.09.248-.135l.18-.09c.079-.041.158-.082.239-.121.063-.029.125-.056.187-.086l.238-.107.193-.078c.078-.034.157-.067.236-.1l.2-.072c.079-.032.157-.059.236-.088l.2-.065c.079-.027.157-.052.237-.076s.137-.039.2-.058l.237-.067.208-.049c.078-.021.158-.039.237-.056l.21-.045c.08-.016.16-.029.239-.047s.14-.023.213-.035.158-.026.237-.035.143-.02.215-.028.159-.019.24-.029.142-.012.213-.02l.241-.017c.072-.006.143-.01.215-.012s.161-.008.241-.01.143,0,.216,0h.361c.1,0,.207.012.31.018l.1.008.208.017.125.014c.061.006.122.014.183.022.045,0,.089.011.135.017s.112.014.169.024l.142.023c.054.008.108.018.161.027l.146.028.155.033.149.031c.05.012.1.024.149.033s.1.026.153.041.093.024.14.036.107.029.159.045.088.025.132.037l.164.052.119.039.174.059.1.037c.065.022.129.045.191.07.019.008.037.016.055.022a10.04,10.04,0,0,1,1.019.467.054.054,0,0,1,.017.008c.077.039.153.08.229.123l.041.023c.072.041.145.084.216.127.017.008.034.019.049.027.071.043.141.088.211.131.016.012.033.022.05.033.07.045.139.09.208.139.016.01.032.02.047.031l.208.147.042.031c.07.051.141.1.21.158a.223.223,0,0,1,.032.026c.074.054.146.113.217.171l.017.014a11.319,11.319,0,0,1,1.957,2.094c.165.228.325.463.478.707,1.823,2.947,3.156,10.029,3.226,14.238,0,.123.006.248.008.371q-2.492.54-4.933,1.287a75.516,75.516,0,0,0-7.264,2.622,73.688,73.688,0,0,0-6.969,3.353q-1.695.935-3.338,1.973c-1.092.689-2.165,1.418-3.2,2.195s-2.049,1.594-3.014,2.469a26.092,26.092,0,0,0-2.72,2.83,17,17,0,0,0-1.167,1.609,11.43,11.43,0,0,0-.941,1.789,6.88,6.88,0,0,0-.508,2.028,4.257,4.257,0,0,0,1.689,3.861,6.9,6.9,0,0,0,1.832,1.006,11.656,11.656,0,0,0,1.953.523c.172.031.343.061.514.086h.007l.235.043m-5.106-5.431a5.787,5.787,0,0,1,.419-1.7,10.4,10.4,0,0,1,.841-1.617,15.46,15.46,0,0,1,1.084-1.512,32.763,32.763,0,0,1,5.476-5.207,59.688,59.688,0,0,1,6.342-4.254,75.993,75.993,0,0,1,6.8-3.527,67.73,67.73,0,0,1,11.972-4.207c.1,5.225-.339,10.709-1.554,14.693a32.93,32.93,0,0,0-6.382-3.506,10.549,10.549,0,0,0-8-.07c-3.079,1.18-6.774,5.525-7.761,6.283l.825.635c.132-.049.264-.1.4-.14.043-.016.085-.028.128-.042.086-.029.174-.06.26-.086.051-.017.1-.029.151-.044l.231-.071c.055-.013.108-.027.161-.043.072-.019.144-.039.215-.056.056-.016.108-.028.162-.041.07-.018.138-.034.206-.049s.109-.026.162-.037.132-.03.2-.043.106-.022.158-.031.129-.026.191-.036.1-.019.156-.027.123-.022.183-.031l.151-.024c.059-.007.118-.017.176-.025l.146-.02c.057,0,.114-.013.169-.021s.094-.01.141-.016.109-.01.161-.013l.134-.014.155-.012c.042,0,.085-.006.127-.01s.1,0,.147-.007l.119-.006.138-.006c.038,0,.074,0,.111,0h.13c.035,0,.07,0,.1,0h.188a9.186,9.186,0,0,1,4.7,1.123c2.245,1.191,5.191,3.084,6.523,4l-.01.006c-.117.07-.237.137-.357.2s-.237.127-.357.19c-.335.171-.675.336-1.021.49-1.134.4-2.278.785-3.43,1.133q-1.9.579-3.832,1.037l-.391.086c-1.92.424-3.712.738-5.25.937a29.319,29.319,0,0,1-5.5.188c-.51-.035-1.016-.092-1.515-.172-.111-.02-.221-.035-.331-.057a10.25,10.25,0,0,1-1.759-.484,5.7,5.7,0,0,1-1.529-.844c-.021-.015-.041-.033-.062-.051a3.339,3.339,0,0,1-.951-1.226,3.393,3.393,0,0,1-.25-1.613"/><path class="a" d="M376.079,4481.573c1.069-.677,2.206-1.351,3.383-2a74.556,74.556,0,0,1,7.053-3.394c1.883-.789,3.791-1.5,5.692-2.127h-.191v-.908h-.857v-1.94h.2l.432-1.234-1.918-1.918-1.917,1.918.431,1.234h.2v1.94h-.856v.908h-.284v.172h-.876v-3.668h.378l.817-2.336-3.629-3.629-3.627,3.629.817,2.336h.377v3.668h-1.621v1.718h-.534v.657l-1.341-1.34-1.662,1.662.375,1.068h.172v1.678h-.742v.789h-.245v.787h-.223v.455c.065-.043.13-.084.2-.125"/><path class="a" d="M383.667,4492.687a11.75,11.75,0,0,1,2.545.277c-.227-.127-.448-.25-.663-.363l-.017-.008-.017-.01a7.917,7.917,0,0,0-4.1-.957h-.133a13.72,13.72,0,0,0-4.216.719l1.346,1.3a14.857,14.857,0,0,1,5.252-.957"/><path class="a" d="M410.7,4470.976h0c.112,1.117.228,2.808.26,3.273q.066,1.709-.011,3.346a35.481,35.481,0,0,1-.788,6.269c-.746,2.8-1.241,4.246-1.5,4.934l-.006,0a26.248,26.248,0,0,1-1.721,3.5,10.248,10.248,0,0,0,1.689.717,27.061,27.061,0,0,0,2.116-5.366l.006-.017a21.526,21.526,0,0,0,.646-2.793,27.481,27.481,0,0,0,2.367-2.561,15.961,15.961,0,0,0,1.123-1.566,10.93,10.93,0,0,0,.887-1.707,6.375,6.375,0,0,0,.459-1.865,3.925,3.925,0,0,0-.3-1.885,3.918,3.918,0,0,1,.287,1.885,6.3,6.3,0,0,1-.467,1.855,10.793,10.793,0,0,1-.9,1.7,16.274,16.274,0,0,1-1.128,1.557,24.139,24.139,0,0,1-2.309,2.443c.13-.771.227-1.5.3-2.049l.007-.009c.033-.274.06-.547.085-.826.014-.125.021-.2.021-.2l0,0c.052-.588.091-1.178.113-1.767a38.477,38.477,0,0,0-.156-5.625c0-.024,0-.045,0-.069-.048-.619-.12-1.209-.195-1.726a10.4,10.4,0,0,1,1.482.422,6.291,6.291,0,0,1,1.681.918,3.907,3.907,0,0,1,1.187,1.488,3.91,3.91,0,0,0-1.18-1.5,6.325,6.325,0,0,0-1.68-.93,10.823,10.823,0,0,0-1.495-.436c-.153-1.039-.316-1.765-.316-1.765l0,0a31.647,31.647,0,0,0-2.137-6.938,37.635,37.635,0,0,1,1.586,7.282"/><path class="a" d="M418.507,4493.536a16.046,16.046,0,0,1-7.277,8.272l-.01,0-.01,0a11.522,11.522,0,0,1-8,.707c-.352-.091-.7-.2-1.039-.31a17.963,17.963,0,0,0,3.59,1.412,10.289,10.289,0,0,0,7.153-.631,15.02,15.02,0,0,0,6.873-8.135Z"/><path class="a" d="M434.309,4457.192a14.3,14.3,0,0,0-3.633-3.632l.09-.346c1.578-.449,5.151-.313,6.372.969a2.393,2.393,0,0,1,.923,1.763,1.466,1.466,0,0,1-.684,1.246h3.99a17.5,17.5,0,0,0,2.8-3.945h5.957a12.5,12.5,0,0,1-5.153,3.945h8.249v2.25h-26.2v-2.25Zm-.834,5.124h2.859l1.1-1.35,4.258,1-1.192,1.385v17.822c0,1.764-.713,2.386-2.113,2.6a16.513,16.513,0,0,1-1.847.173c-.594,0-.713-.035-.713-.8,0-1.453-.984-1.73-2.025-2l.059-.452c.446.036.923.106,1.369.106.983,0,1.281.172,1.281-.971v-4.568h-3.038v8.963h-4.108v-22.979h4.108Zm3.038,2.144h-3.038v3.186h3.038Zm0,5.365h-3.038v3.184h3.038Zm5.3-6.3,3.633-.037v14.086h-3.633Zm9.321,17.616c0,2.593-2.115,2.8-3.841,2.939-.448.037-.894.07-1.31.07a1.659,1.659,0,0,1-.716-.1c-.387-.346.09-1.695-1.22-2.389a5.945,5.945,0,0,0-1.7-.484l.089-.416c.923.037,1.876.068,2.828.068.477,0,1.549-.031,1.549-.828v-19.242h4.318Z"/><path class="a" d="M463.075,4469.687c.031.623.031,1.281.031,1.9a23.3,23.3,0,0,1-1.668,9.066,31.541,31.541,0,0,1-1.37,2.944l-3.187-4.119a31.181,31.181,0,0,0,5.838-9.934Zm-5.6-7.543c1.609.345,3.931.033,5.33,1.175a4.426,4.426,0,0,1,1.4,2.735,2.131,2.131,0,0,1-1.965,2.076c-1.7,0-1.965-1.662-2.8-3.08a11.048,11.048,0,0,0-2.233-2.631Zm.388-9c1.489.416,5.21.968,6.1,2.527a5.089,5.089,0,0,1,.685,2.353c0,1.176-1.31,1.7-2.143,1.7a2.321,2.321,0,0,1-1.579-1.072c-.654-1.073-1.071-2.319-1.757-3.358a23.489,23.489,0,0,0-1.577-1.937Zm6.4,14.709-.3-.243a8.083,8.083,0,0,0,1.073-1.625,17.5,17.5,0,0,0,1.935-6.576l.506-5.4h4.11a23.961,23.961,0,0,1-1.22,7.545c-1.133,3.045-3.9,4.845-6.105,6.3m1.34-.45h4.555v1.211h5.986l1.25-1.384,4.467,1.039-1.042,1.349v14.535H476.3v-2.664h-6.134v2.664h-4.555Zm10.689,3.565h-6.134v8.168H476.3Zm2-16.959c-.031,2.25.06,2.838,0,4.086-.031,1.383.417,3.6,1.757,3.7a17.86,17.86,0,0,0,1.846.484c.714,0,1.072.588,1.072,1.453a14.011,14.011,0,0,1-.328,1.905c-.327,1.279-2.561.59-3.513.59a5.321,5.321,0,0,1-4.853-4.674c-.18-2.319-.389-4.223-.389-7.545Z"/><path class="a" d="M512.716,4465.882H486.333v-2.113h26.383ZM497.5,4480.97v-1.8H488l-.031-1.973H497.5v-1.73H493.42v.935H489.1v-9.621h4.318v.692h12.625l1.131-1.385,4.289.971-.924,1.211v7.994h-4.317v-.8h-4.259v1.73h9.768v1.973h-9.768v1.8h10.841v2.111H486.6v-2.111Zm-3.454-27.584v.867H505.6l1.191-1.488,4.5,1-1.131,1.349v7.649h-4.347v-.657H494.045v.76h-4.378v-9.482Zm3.454,15.955H493.42v1.244H497.5Zm0,3.045H493.42v1.107H497.5Zm8.309-16.369H494.045v1.314h11.763Zm0,3.08H494.045v1.14h11.763Zm.416,10.244h-4.259v1.244h4.259Zm0,3.045h-4.259v1.107h4.259Z"/><path class="a" d="M528.142,4465.882v-3.842h.923c1.28-1.558,2.56-3.115,3.693-4.777H518.911v-2.457h15.4l1.458-1.7,5.122,1.385c-.506.414-1.012.795-1.489,1.209-.268.209-.714.865-.982,1.143a18.823,18.823,0,0,1-2.144,2.111,43.987,43.987,0,0,1-4.5,3.082h.954v3.842h9.557v2.387h-9.557v11.213a17.343,17.343,0,0,1-.03,1.765,3.689,3.689,0,0,1-.388,1.279c-.357.8-1.518,1.108-2.2,1.282a14.226,14.226,0,0,1-2.95.449c-.207,0-.923,0-1.071-.207a.881.881,0,0,1-.089-.484c0-2.114-2-2.354-3.365-2.631v-.588c1.489.1,2.978.207,4.437.207.893,0,1.072-.174,1.072-1.211v-11.074H516.737v-2.387Z"/><path class="a" d="M546.068,4456.224a34.379,34.379,0,0,0,7.773-3.043l4.646,2.56a20.7,20.7,0,0,1-4.081.967v4.4h3.514v2.25h-3.514v2.63a19.586,19.586,0,0,1,3.277,1.418,3.991,3.991,0,0,1,2.2,2.387c.476,1.627-.626,2.389-1.936,2.389-1.549,0-2.085-1.488-2.441-2.908a7.153,7.153,0,0,0-1.1-2.352v17.269h-4.2v-9.9a19.2,19.2,0,0,1-3.574,5.848l-.327-.172a20.5,20.5,0,0,0,.6-2.318,51.266,51.266,0,0,0,1.041-7.409c.091-1.59.12-3.216.209-4.808h2.055v-2.076h-4.08v-2.25h4.08v-4.292c-1.369-.07-2.769-.1-4.14-.31Zm19.982,16.646v-19.726h4.406v19.726h1.877v2.321h-1.877v9H566.05v-9h-8.755v-2.321Zm-7.236-16.508c1.517.245,5.091.971,5.955,2.664a2.366,2.366,0,0,1,.478,1.456,1.782,1.782,0,0,1-1.937,1.8,2.609,2.609,0,0,1-2.233-1.939,17.629,17.629,0,0,0-.715-1.729,7.132,7.132,0,0,0-1.727-1.937Zm0,7.752c1.845.243,6.433,1.317,6.433,4.327a1.83,1.83,0,0,1-1.878,1.8c-1.995,0-2.173-2.906-3.335-4.463a9.432,9.432,0,0,0-1.4-1.384Z"/><path class="a" d="M579.927,4457.056v-3.842h4.287v3.842h2.354v2.353h-2.354v5.537c.716-.486,1.431-1,2.145-1.523l.387.207a28.324,28.324,0,0,1-2.532,4.049v13.361a4.711,4.711,0,0,1-.326,1.555c-.269.762-1.252,1.039-1.876,1.178a11.3,11.3,0,0,1-2.413.31c-1.638,0-.149-1.211-1.846-2.422a5.887,5.887,0,0,0-1.846-.621l.089-.486c.952.068,1.937.1,2.918.1.566,0,1.013.035,1.013-.8v-8.652a32.146,32.146,0,0,1-3.722,2.285l-.416-4.672a20.477,20.477,0,0,0,4.138-1.625v-7.787h-3.662v-2.353Zm7.683,5.916,4.288-.034v-4.6h-4.467v-2.18H591.9v-3.011h4.317v3.011h6.134v2.18h-6.134v4.6h.685l1.37-1.523,4.317,1.42-1.577,1.522a28.1,28.1,0,0,1-4.705,10.867,22.508,22.508,0,0,0,4.406,3.67c.626.345,1.312.656,1.966.966v.381a2.19,2.19,0,0,0-1.817.936,2.635,2.635,0,0,0-.446,1.178,5.005,5.005,0,0,0,.238,1.488l-.328.24a24.205,24.205,0,0,1-7-5.674c-.716.623-1.459,1.246-2.234,1.8a26.746,26.746,0,0,1-6.968,3.565l-.237-.346c.654-.449,1.34-.936,1.965-1.453a24.511,24.511,0,0,0,1.845-1.8,34.689,34.689,0,0,0,3.813-4.533,25.327,25.327,0,0,1-2.383-6.715c-.179-1.246-.3-2.49-.446-3.737H587.61Zm8.873,2.25h-6.789a27.848,27.848,0,0,0,3.96,7.267,23.7,23.7,0,0,0,2.829-7.267"/><path class="a" d="M606.072,4466.054a30.029,30.029,0,0,0,2.621-8.965h-3.007v-2.145h11.522v2.145H613.4c-.923,2.8-1.489,4.361-3.4,6.508h1.667v1.349H613.4l.982-1.177,4.109.865-1.131,1.281.031,15.711h-3.872v-1.244H611.67v1.244h-3.96v-15.781c-.685.59-1.4,1.142-2.114,1.662l-.3-.207a12.078,12.078,0,0,0,.773-1.246m7.445,1.072H611.67V4478.1h1.847Zm4.288-1.281h2.114v-9.516H617.8v-2.18h13.906v2.18h-1.7v9.516h2.053v2.25h-2.053v15.885h-4.02V4468.1h-2.2v4.015c0,3.875-.626,6.125-3.157,8.719a16.323,16.323,0,0,1-4.229,3.186l-.268-.313c.3-.345.6-.658.894-.969a10.827,10.827,0,0,0,1.131-1.556c1.549-2.422,1.757-5.85,1.757-8.756V4468.1H617.8Zm8.189-9.516h-2.2v9.516h2.2Z"/><path class="a" d="M642.253,4475.224a24.474,24.474,0,0,0,.6-3.6h-6.136v-2.353h6.343c.089-1,.179-2.008.209-3.01l4.408-.033c-.091,1-.119,2.041-.239,3.043h3.781l1.192-1.661,4.437,1.178-1.281,1.522v9.242c0,.689.178.863.746.863a1.593,1.593,0,0,0,.683-.207c.715-.484,1.965-4.707,2.263-5.779l.388.07c-.06.692-.179,1.383-.179,2.076,0,.76.179,2.145.834,2.491.3.173,1.25.38,1.25.9a1.675,1.675,0,0,1-.208.658,12,12,0,0,1-.923,1.764c-.923,1.455-3.067,1.627-4.5,1.627-1.072,0-3.485,0-4.05-1.211a5.892,5.892,0,0,1-.536-2.389v-8.791h-4.17a27.8,27.8,0,0,1-.8,3.809c-1.579,5.295-6.343,7.543-10.69,8.582l-.179-.346a13.066,13.066,0,0,0,6.759-8.445m-1.845-16.024c.029.416.059.832.059,1.248,0,1.764-.924,2.733-2.055,2.733a1.963,1.963,0,0,1-2.054-1.8c0-1.037,1.1-2.977,1.547-4.15a6.91,6.91,0,0,0,.417-2.079l.358-.07a10.127,10.127,0,0,1,1.1,1.871H646.6c-1.55-.832-.269-2.424-2.324-3.705l.12-.381c1.22.071,2.352-.588,3.484-.275a3.012,3.012,0,0,1,2.382,2.6,2.517,2.517,0,0,1-.833,1.765H655l1.668-1.974,4.883,1.455c-.536.482-1.072.933-1.608,1.453-.446.449-.8,1.107-1.221,1.627a13.143,13.143,0,0,1-3.9,3.113c-.09,0-.09-.346-.626-.346.24-.968.447-2.076.6-3.08Zm7.116,1.074c-3.544,4.532-4.883,5.434-9.738,7.129l-.178-.277a14.7,14.7,0,0,0,5.331-6.922Zm6.552,6.852c-1.936,0-5.032.1-5.032-2.906v-4.084h4.02v2.631c0,.691.415,1.1,2.529.933a8.014,8.014,0,0,1,1.609,0c.06.969,0,2.7,0,3.426-.715.07-1.728,0-3.126,0"/><path class="a" d="M666.256,4456.64h4.5v1.316h4.973v-4.949h4.586v4.949h4.674l1.221-1.7,4.616,1.246-1.161,1.627v16.576h-4.526v-2.25h-4.824v10.867h-4.586v-10.867h-4.973v2.25h-4.5Zm9.469,3.564h-4.973v11.074h4.973Zm9.41,0h-4.824v11.074h4.824Z"/><path class="a" d="M698.356,4462.038a41.206,41.206,0,0,1,2.085,5.262,14.378,14.378,0,0,1,.357,3.391,13.213,13.213,0,0,1-.774,4.949,3.429,3.429,0,0,1-3.1,1.763,5.176,5.176,0,0,1-1.46-.275,1.591,1.591,0,0,1-.952-1.662c0-1.522,1.012-3.322,1.608-4.637,1.428-3.219,1.608-5.158,1.845-8.721Zm7.892-3.322v19.519c0,1.35.953,1.663,1.935,1.663a3,3,0,0,0,1.34-.28c1.637-.795,2.769-6.16,3.365-8.1l.447.07a22.916,22.916,0,0,0-.268,2.805,5.4,5.4,0,0,0,.536,2.871c.357.414,1.578.863,1.578,1.453a2.366,2.366,0,0,1-.179.762,5.918,5.918,0,0,1-2.62,3.459c-1.162.8-3.156.867-4.467.867-3.455,0-6.045-.659-6.045-5.295v-19.8Zm-.655-5.709c1.577.656,3.365,1.142,4.913,1.9a5.35,5.35,0,0,1,2.621,2.526,6.731,6.731,0,0,1,.386,2.457,1.923,1.923,0,0,1-2.025,1.9c-1.994,0-2.471-2.041-3.156-3.807a15.043,15.043,0,0,0-.863-1.73,15.527,15.527,0,0,0-2.2-2.942Zm10.154,9.066c1.816,2.11,4.168,4.362,5.092,7.094a23.243,23.243,0,0,1,.8,2.8,11.47,11.47,0,0,1,.328,2.7c0,1.867-.924,3.91-2.591,3.91a2.111,2.111,0,0,1-2.085-1.523,26.087,26.087,0,0,1-.3-4.4,41.313,41.313,0,0,0-1.191-9.066l-.447-1.385Z"/><path class="a" d="M429.381,4497.472c0-2.686,1.633-4.3,3.713-4.3a3.183,3.183,0,0,1,2.34,1.039l-.706.828a2.189,2.189,0,0,0-1.61-.738c-1.422,0-2.406,1.185-2.406,3.121,0,1.959.917,3.154,2.371,3.154a2.4,2.4,0,0,0,1.824-.871l.694.816a3.256,3.256,0,0,1-2.562,1.186c-2.07,0-3.658-1.545-3.658-4.24"/><path class="a" d="M436.507,4498.5a2.988,2.988,0,0,1,2.808-3.244c1.633,0,2.506,1.176,2.506,2.92a3.305,3.305,0,0,1-.056.648h-3.994a1.858,1.858,0,0,0,1.9,1.879,2.623,2.623,0,0,0,1.465-.457l.448.815a3.735,3.735,0,0,1-2.081.65,2.956,2.956,0,0,1-3-3.211m4.206-.559c0-1.062-.48-1.679-1.376-1.679a1.671,1.671,0,0,0-1.578,1.679Z"/><path class="a" d="M443.264,4495.413h1.051l.1.85h.034a2.935,2.935,0,0,1,2.036-1.006c1.309,0,1.891.873,1.891,2.439v3.87h-1.288v-3.713c0-1.065-.312-1.489-1.04-1.489a2.1,2.1,0,0,0-1.509.84v4.362h-1.276Z"/><path class="a" d="M450.446,4499.552v-3.11h-.9v-.96l.951-.069.146-1.7h1.084v1.7h1.6v1.029h-1.6v3.12c0,.74.258,1.121.9,1.121a1.807,1.807,0,0,0,.661-.147l.234.951a3.868,3.868,0,0,1-1.207.225c-1.388,0-1.869-.861-1.869-2.16"/><path class="a" d="M454.048,4498.5a2.988,2.988,0,0,1,2.808-3.244c1.633,0,2.506,1.176,2.506,2.92a3.305,3.305,0,0,1-.056.648h-3.993a1.856,1.856,0,0,0,1.9,1.879,2.625,2.625,0,0,0,1.465-.457l.448.815a3.735,3.735,0,0,1-2.081.65,2.956,2.956,0,0,1-3-3.211m4.206-.559c0-1.062-.48-1.679-1.376-1.679a1.671,1.671,0,0,0-1.578,1.679Z"/><path class="a" d="M460.8,4495.413h1.051l.1,1.108h.032a2.128,2.128,0,0,1,1.745-1.264,1.514,1.514,0,0,1,.694.135l-.234,1.117a1.832,1.832,0,0,0-.616-.1c-.5,0-1.107.348-1.5,1.319v3.838H460.8Z"/><path class="a" d="M470.884,4493.679a1.683,1.683,0,0,0-.671-.155c-.548,0-.817.358-.817,1.106v.783h1.242v1.029H469.4v5.124H468.11v-5.124h-.839v-.96l.839-.069v-.771c0-1.266.571-2.137,1.946-2.137a2.8,2.8,0,0,1,1.085.213Z"/><path class="a" d="M471.2,4498.5a2.912,2.912,0,1,1,2.9,3.211,2.972,2.972,0,0,1-2.9-3.211m4.474,0c0-1.31-.6-2.182-1.577-2.182s-1.566.872-1.566,2.182.6,2.16,1.566,2.16,1.577-.863,1.577-2.16"/><path class="a" d="M478.5,4495.413h1.052l.1,1.108h.033a2.126,2.126,0,0,1,1.745-1.264,1.517,1.517,0,0,1,.694.135l-.235,1.117a1.826,1.826,0,0,0-.615-.1c-.5,0-1.107.348-1.5,1.319v3.838H478.5Z"/><path class="a" d="M492.688,4503.489a3.239,3.239,0,0,1-1.265.213,3.323,3.323,0,0,1-3.2-2.035c-1.779-.3-2.965-1.869-2.965-4.252,0-2.65,1.465-4.238,3.58-4.238s3.592,1.588,3.592,4.238c0,2.318-1.131,3.859-2.82,4.217a2.107,2.107,0,0,0,1.958,1.008,3.073,3.073,0,0,0,.873-.123Zm-3.849-2.84c1.365,0,2.259-1.242,2.259-3.234,0-1.935-.894-3.109-2.259-3.109s-2.249,1.174-2.249,3.109c0,1.992.885,3.234,2.249,3.234"/><path class="a" d="M493.952,4499.284v-3.871h1.286v3.715c0,1.06.3,1.475,1.029,1.475.57,0,.963-.268,1.477-.916v-4.274h1.287v6.153h-1.052l-.1-.928h-.032a2.582,2.582,0,0,1-2.013,1.074c-1.309,0-1.88-.861-1.88-2.428"/><path class="a" d="M500.608,4499.933c0-1.321,1.119-2,3.681-2.284-.012-.714-.269-1.341-1.175-1.341a3.389,3.389,0,0,0-1.78.627l-.48-.872a4.707,4.707,0,0,1,2.483-.806c1.534,0,2.238.973,2.238,2.6v3.7h-1.052l-.112-.706h-.033a3.05,3.05,0,0,1-1.958.852,1.7,1.7,0,0,1-1.812-1.779m3.681.045v-1.51c-1.824.223-2.44.681-2.44,1.375,0,.6.415.851.963.851a2.171,2.171,0,0,0,1.477-.716"/><path class="a" d="M507.4,4495.413h1.051l.1.85h.034a2.936,2.936,0,0,1,2.037-1.006c1.308,0,1.89.873,1.89,2.439v3.87h-1.287v-3.713c0-1.065-.312-1.489-1.04-1.489a2.1,2.1,0,0,0-1.51.84v4.362H507.4Z"/><path class="a" d="M514.581,4499.552v-3.11h-.9v-.96l.95-.069.147-1.7h1.084v1.7h1.6v1.029h-1.6v3.12c0,.74.257,1.121.9,1.121a1.8,1.8,0,0,0,.66-.147l.235.951a3.868,3.868,0,0,1-1.208.225c-1.388,0-1.868-.861-1.868-2.16"/><path class="a" d="M518.731,4499.284v-3.871h1.287v3.715c0,1.06.3,1.475,1.028,1.475.57,0,.962-.268,1.477-.916v-4.274h1.287v6.153h-1.052l-.1-.928h-.033a2.583,2.583,0,0,1-2.015,1.074c-1.308,0-1.878-.861-1.878-2.428"/><path class="a" d="M525.745,4495.413H526.8l.1.861h.035a2.684,2.684,0,0,1,1.9-1.017,1.64,1.64,0,0,1,1.7,1.131,2.834,2.834,0,0,1,2-1.131c1.286,0,1.891.873,1.891,2.439v3.87h-1.287v-3.713c0-1.065-.335-1.489-1.029-1.489a2.051,2.051,0,0,0-1.386.84v4.362h-1.287v-3.713c0-1.065-.325-1.489-1.03-1.489a2.077,2.077,0,0,0-1.387.84v4.362h-1.275Z"/><path class="a" d="M538.912,4493.333h4.877v1.084H540.21v2.518h3.042v1.084H540.21v3.547h-1.3Z"/><path class="a" d="M544.886,4495.413h1.052l.1,1.108h.033a2.128,2.128,0,0,1,1.746-1.264,1.52,1.52,0,0,1,.694.135l-.236,1.117a1.823,1.823,0,0,0-.615-.1c-.5,0-1.107.348-1.5,1.319v3.838h-1.275Z"/><path class="a" d="M548.9,4498.5a2.912,2.912,0,1,1,2.9,3.211,2.972,2.972,0,0,1-2.9-3.211m4.475,0c0-1.31-.6-2.182-1.577-2.182s-1.567.872-1.567,2.182.6,2.16,1.567,2.16,1.577-.863,1.577-2.16"/><path class="a" d="M556.207,4495.413h1.051l.1.85h.033a2.936,2.936,0,0,1,2.037-1.006c1.307,0,1.889.873,1.889,2.439v3.87h-1.285v-3.713c0-1.065-.314-1.489-1.041-1.489a2.1,2.1,0,0,0-1.51.84v4.362h-1.276Z"/><path class="a" d="M563.389,4499.552v-3.11h-.895v-.96l.952-.069.144-1.7h1.085v1.7h1.6v1.029h-1.6v3.12c0,.74.258,1.121.9,1.121a1.8,1.8,0,0,0,.661-.147l.234.951a3.857,3.857,0,0,1-1.207.225c-1.387,0-1.869-.861-1.869-2.16"/><path class="a" d="M567.439,4493.5a.757.757,0,0,1,.817-.762.763.763,0,1,1-.817.762m.179,1.912h1.276v6.153h-1.276Z"/><path class="a" d="M570.392,4498.5a2.988,2.988,0,0,1,2.809-3.244c1.632,0,2.505,1.176,2.505,2.92a3.306,3.306,0,0,1-.056.648h-3.994a1.857,1.857,0,0,0,1.9,1.879,2.622,2.622,0,0,0,1.464-.457l.448.815a3.735,3.735,0,0,1-2.08.65,2.956,2.956,0,0,1-3-3.211m4.206-.559c0-1.062-.48-1.679-1.375-1.679a1.67,1.67,0,0,0-1.578,1.679Z"/><path class="a" d="M577.149,4495.413H578.2l.1,1.108h.034a2.126,2.126,0,0,1,1.745-1.264,1.519,1.519,0,0,1,.693.135l-.235,1.117a1.819,1.819,0,0,0-.615-.1c-.5,0-1.108.348-1.5,1.319v3.838h-1.276Z"/><path class="a" d="M581.009,4500.86l.6-.826a2.726,2.726,0,0,0,1.745.7c.738,0,1.084-.359,1.084-.83,0-.558-.693-.8-1.364-1.06-.816-.315-1.756-.752-1.756-1.789s.827-1.8,2.182-1.8a3.243,3.243,0,0,1,2,.726l-.6.795a2.294,2.294,0,0,0-1.376-.537c-.671,0-.983.336-.983.76,0,.527.637.727,1.309.975.86.324,1.811.7,1.811,1.867,0,1.029-.816,1.869-2.338,1.869a3.779,3.779,0,0,1-2.315-.852"/><path class="a" d="M589.108,4498.5a2.912,2.912,0,1,1,2.9,3.211,2.971,2.971,0,0,1-2.9-3.211m4.475,0c0-1.31-.6-2.182-1.579-2.182s-1.565.872-1.565,2.182.6,2.16,1.565,2.16,1.579-.863,1.579-2.16"/><path class="a" d="M599.366,4493.679a1.675,1.675,0,0,0-.67-.155c-.55,0-.817.358-.817,1.106v.783h1.241v1.029h-1.241v5.124h-1.286v-5.124h-.839v-.96l.839-.069v-.771c0-1.266.57-2.137,1.946-2.137a2.793,2.793,0,0,1,1.084.213Z"/><path class="a" d="M607.364,4501.566l-1.867-3.323h-1.331v3.323h-1.3v-8.233h2.7c1.7,0,2.976.6,2.976,2.383a2.292,2.292,0,0,1-1.723,2.359l2.013,3.491Zm-3.2-4.362h1.241c1.2,0,1.845-.492,1.845-1.488s-.648-1.344-1.845-1.344h-1.241Z"/><path class="a" d="M609.524,4498.5a2.988,2.988,0,0,1,2.809-3.244c1.633,0,2.505,1.176,2.505,2.92a3.3,3.3,0,0,1-.056.648h-3.993a1.856,1.856,0,0,0,1.9,1.879,2.623,2.623,0,0,0,1.465-.457l.448.815a3.735,3.735,0,0,1-2.08.65,2.956,2.956,0,0,1-3-3.211m4.206-.559c0-1.062-.48-1.679-1.376-1.679a1.67,1.67,0,0,0-1.577,1.679Z"/><path class="a" d="M615.632,4500.86l.6-.826a2.73,2.73,0,0,0,1.747.7c.737,0,1.083-.359,1.083-.83,0-.558-.693-.8-1.365-1.06-.816-.315-1.756-.752-1.756-1.789s.828-1.8,2.182-1.8a3.247,3.247,0,0,1,2,.726l-.605.795a2.289,2.289,0,0,0-1.375-.537c-.671,0-.984.336-.984.76,0,.527.638.727,1.309.975.861.324,1.812.7,1.812,1.867,0,1.029-.816,1.869-2.339,1.869a3.784,3.784,0,0,1-2.315-.852"/><path class="a" d="M621.214,4498.5a2.988,2.988,0,0,1,2.809-3.244c1.633,0,2.505,1.176,2.505,2.92a3.3,3.3,0,0,1-.056.648h-3.994a1.858,1.858,0,0,0,1.9,1.879,2.625,2.625,0,0,0,1.465-.457l.447.815a3.732,3.732,0,0,1-2.08.65,2.956,2.956,0,0,1-3-3.211m4.206-.559c0-1.062-.48-1.679-1.375-1.679a1.67,1.67,0,0,0-1.578,1.679Z"/><path class="a" d="M627.445,4499.933c0-1.321,1.12-2,3.681-2.284-.012-.714-.268-1.341-1.175-1.341a3.388,3.388,0,0,0-1.779.627l-.48-.872a4.7,4.7,0,0,1,2.483-.806c1.532,0,2.237.973,2.237,2.6v3.7H631.36l-.111-.706h-.033a3.054,3.054,0,0,1-1.958.852,1.7,1.7,0,0,1-1.813-1.779m3.681.045v-1.51c-1.823.223-2.439.681-2.439,1.375,0,.6.415.851.963.851a2.165,2.165,0,0,0,1.476-.716"/><path class="a" d="M634.236,4495.413h1.051l.1,1.108h.033a2.125,2.125,0,0,1,1.744-1.264,1.528,1.528,0,0,1,.7.135l-.236,1.117a1.822,1.822,0,0,0-.615-.1c-.5,0-1.108.348-1.5,1.319v3.838h-1.276Z"/><path class="a" d="M638.252,4498.5a3.023,3.023,0,0,1,3.043-3.244,2.648,2.648,0,0,1,1.8.7l-.639.842a1.609,1.609,0,0,0-1.106-.483c-1.031,0-1.769.872-1.769,2.182s.705,2.16,1.734,2.16a2.117,2.117,0,0,0,1.343-.56l.525.849a2.993,2.993,0,0,1-1.991.762,2.909,2.909,0,0,1-2.942-3.211"/><path class="a" d="M644.472,4492.649h1.276v2.362l-.045,1.219a2.862,2.862,0,0,1,1.991-.973c1.308,0,1.891.873,1.891,2.437v3.872H648.3v-3.713c0-1.065-.314-1.489-1.04-1.489a2.1,2.1,0,0,0-1.51.84v4.362h-1.276Z"/><path class="a" d="M660.323,4501.712a6.346,6.346,0,0,1-1.956-.906,3.639,3.639,0,0,1-2.45.906,2.335,2.335,0,0,1-2.574-2.293,2.867,2.867,0,0,1,1.588-2.373,4.178,4.178,0,0,1-.536-1.858,1.941,1.941,0,0,1,2-2.011,1.614,1.614,0,0,1,1.745,1.7c0,1.084-.918,1.768-1.825,2.418a10.684,10.684,0,0,0,1.959,2.047,6.707,6.707,0,0,0,1.107-2.281h1.186a8.9,8.9,0,0,1-1.432,2.894,5.623,5.623,0,0,0,1.51.707Zm-4.249-1.008a2.329,2.329,0,0,0,1.419-.558,11.63,11.63,0,0,1-2.035-2.227,1.963,1.963,0,0,0-.885,1.422,1.385,1.385,0,0,0,1.5,1.363m-.247-4.226c.715-.459,1.3-.907,1.3-1.59,0-.447-.211-.817-.716-.817a.987.987,0,0,0-.929,1.108,3.145,3.145,0,0,0,.348,1.3"/><path class="a" d="M666.13,4494.417h-2.417v-1.084h6.142v1.084h-2.427v7.148h-1.3Z"/><path class="a" d="M669.855,4498.5a2.988,2.988,0,0,1,2.809-3.244c1.633,0,2.505,1.176,2.505,2.92a3.3,3.3,0,0,1-.056.648H671.12a1.855,1.855,0,0,0,1.9,1.879,2.624,2.624,0,0,0,1.466-.457l.448.815a3.735,3.735,0,0,1-2.081.65,2.956,2.956,0,0,1-3-3.211m4.206-.559c0-1.062-.48-1.679-1.375-1.679a1.67,1.67,0,0,0-1.578,1.679Z"/><path class="a" d="M676.175,4498.5a3.024,3.024,0,0,1,3.043-3.244,2.644,2.644,0,0,1,1.8.7l-.638.842a1.61,1.61,0,0,0-1.108-.483c-1.028,0-1.767.872-1.767,2.182s.7,2.16,1.733,2.16a2.122,2.122,0,0,0,1.344-.56l.525.849a3,3,0,0,1-1.991.762,2.911,2.911,0,0,1-2.943-3.211"/><path class="a" d="M682.4,4492.649h1.276v2.362l-.046,1.219a2.864,2.864,0,0,1,1.991-.973c1.309,0,1.891.873,1.891,2.437v3.872h-1.286v-3.713c0-1.065-.314-1.489-1.041-1.489a2.094,2.094,0,0,0-1.509.84v4.362H682.4Z"/><path class="a" d="M689.343,4495.413h1.051l.1.85h.034a2.938,2.938,0,0,1,2.037-1.006c1.308,0,1.89.873,1.89,2.439v3.87h-1.287v-3.713c0-1.065-.314-1.489-1.04-1.489a2.1,2.1,0,0,0-1.51.84v4.362h-1.275Z"/><path class="a" d="M695.887,4498.5a2.912,2.912,0,1,1,2.9,3.211,2.972,2.972,0,0,1-2.9-3.211m4.474,0c0-1.31-.6-2.182-1.577-2.182s-1.566.872-1.566,2.182.6,2.16,1.566,2.16,1.577-.863,1.577-2.16"/><path class="a" d="M703.192,4500.122v-7.473h1.276v7.539c0,.348.156.473.312.473a.867.867,0,0,0,.213-.023l.168.972a2.029,2.029,0,0,1-.693.1c-.93,0-1.276-.594-1.276-1.59"/><path class="a" d="M706.09,4498.5a2.912,2.912,0,1,1,2.9,3.211,2.971,2.971,0,0,1-2.9-3.211m4.475,0c0-1.31-.6-2.182-1.579-2.182s-1.566.872-1.566,2.182.6,2.16,1.566,2.16,1.579-.863,1.579-2.16"/><path class="a" d="M712.946,4502.708a1.622,1.622,0,0,1,.9-1.342v-.058a1.131,1.131,0,0,1-.559-1.018,1.514,1.514,0,0,1,.683-1.139v-.046a2.1,2.1,0,0,1-.807-1.633,2.219,2.219,0,0,1,2.382-2.215,2.57,2.57,0,0,1,.9.156h2.181v.963h-1.175a1.659,1.659,0,0,1,.4,1.131,2.1,2.1,0,0,1-2.306,2.113,2.168,2.168,0,0,1-.859-.189.806.806,0,0,0-.336.648c0,.367.245.6,1.028.6h1.131c1.454,0,2.214.447,2.214,1.5,0,1.187-1.253,2.148-3.221,2.148-1.478,0-2.552-.547-2.552-1.621m4.532-.324c0-.516-.4-.672-1.153-.672H715.4a3.993,3.993,0,0,1-.828-.09,1.107,1.107,0,0,0-.526.9c0,.6.627.963,1.646.963,1.073,0,1.789-.528,1.789-1.1m-.772-4.912a1.172,1.172,0,1,0-2.327,0,1.173,1.173,0,1,0,2.327,0"/><path class="a" d="M722.713,4501.935c-.48,1.32-1.129,2.2-2.427,2.2a2.267,2.267,0,0,1-.773-.121l.246-1.006a1.714,1.714,0,0,0,.449.088c.671,0,1.062-.494,1.286-1.153l.123-.423-2.438-6.11H720.5l1.141,3.166c.178.549.369,1.162.559,1.734h.056l.48-1.734.987-3.166h1.252Z"/></g></svg>