<svg xmlns="http://www.w3.org/2000/svg" width="512.682" height="73.242" viewBox="0 0 512.682 73.242"><defs><style>.a{fill:rgba(0,0,0,0);}.b{fill:#070203;}</style></defs><g transform="translate(-119.992 -254.612)"><path class="a" d="M615.847,265.551"/><path class="b" d="M206.954,261.55c-1.586-2-3.261-4.149-5.376-5.378l.132-.513c2.336-.665,7.624-.46,9.431,1.434a3.546,3.546,0,0,1,1.366,2.613,2.172,2.172,0,0,1-1.013,1.844h5.9a25.938,25.938,0,0,0,4.142-5.839h8.814c-2.468,3.175-4.319,4.148-7.624,5.839h12.207v3.328H196.157V261.55Zm-1.233,7.58h4.23l1.631-2,6.3,1.485-1.763,2.049v26.377c0,2.612-1.058,3.534-3.129,3.842a24.755,24.755,0,0,1-2.732.255c-.882,0-1.058-.051-1.058-1.177,0-2.152-1.454-2.561-3-2.971l.088-.666c.661.051,1.366.154,2.028.154,1.454,0,1.9.256,1.9-1.434v-6.761h-4.5V301.55h-6.082V267.542h6.082Zm4.5,7.887V272.3h-4.5v4.712Zm0,3.227h-4.5v4.712h4.5Zm7.844-9.322,5.376-.051v20.846H218.06Zm13.793,26.07c0,3.841-3.129,4.148-5.685,4.353-.661.052-1.322.1-1.939.1a2.425,2.425,0,0,1-1.057-.154c-.573-.512.132-2.51-1.807-3.534a8.856,8.856,0,0,0-2.512-.717l.132-.615c1.366.052,2.777.1,4.187.1.705,0,2.291-.051,2.291-1.229V266.825h6.39Z"/><path class="b" d="M249.527,280.039c.044.922.044,1.895.044,2.817a34.488,34.488,0,0,1-2.468,13.419,47.139,47.139,0,0,1-2.027,4.353l-4.716-6.1a46.134,46.134,0,0,0,8.638-14.7Zm-8.285-11.165c2.379.512,5.817.051,7.888,1.741a6.546,6.546,0,0,1,2.071,4.046,3.155,3.155,0,0,1-2.908,3.073c-2.512,0-2.909-2.458-4.143-4.558a16.349,16.349,0,0,0-3.3-3.893Zm.573-13.317c2.2.615,7.712,1.434,9.034,3.739a7.561,7.561,0,0,1,1.013,3.483c0,1.741-1.939,2.509-3.173,2.509a3.43,3.43,0,0,1-2.335-1.587c-.97-1.588-1.587-3.432-2.6-4.968a34.253,34.253,0,0,0-2.335-2.869Zm9.474,21.767-.44-.358a12,12,0,0,0,1.586-2.407c1.322-3.022,2.38-4.866,2.865-9.732l.749-7.99h6.081A35.417,35.417,0,0,1,260.323,268C258.649,272.51,254.55,275.173,251.289,277.324Zm1.983-.666h6.743v1.793h8.858l1.851-2.048,6.61,1.536-1.542,2v21.512h-6.7V297.5h-9.078v3.944h-6.743Zm15.821,17.363V281.934h-9.078v12.087Zm2.953-37.184c-.044,3.33.088,4.2,0,6.044-.044,2.049.617,5.327,2.6,5.48.925.1,1.807.717,2.732.717,1.058,0,1.586.871,1.586,2.152a20.944,20.944,0,0,1-.484,2.816c-.485,1.9-3.79.871-5.2.871A7.881,7.881,0,0,1,266.1,268c-.264-3.432-.572-6.249-.572-11.166Z"/><path class="b" d="M322.991,274.4H283.946v-3.124h39.045Zm-22.519,22.331v-2.664H286.414l-.044-2.919h14.1v-2.561h-6.038v1.383h-6.39V275.737h6.39v1.024H313.12l1.674-2.049,6.346,1.434-1.366,1.793V289.77h-6.39v-1.178h-6.3v2.561h14.455v2.919H307.082v2.664h16.041v3.124H284.342v-3.124Zm-5.112-40.82v1.28h17.1l1.763-2.2,6.655,1.485-1.675,2V269.8h-6.434v-.974H295.36v1.127h-6.478V255.916Zm5.112,25.455v-1.844h-6.038v1.844Zm0,4.3v-1.639h-6.038v1.639Zm12.3-23.919v-1.946H295.36v1.946Zm0,4.3v-1.69H295.36v1.69Zm.617,15.314v-1.844h-6.3v1.844Zm0,2.663h-6.3v1.639h6.3Z"/><path class="b" d="M345.82,274.4V268.72h1.366c1.895-2.3,3.79-4.61,5.465-7.068H332.159v-3.637h22.783l2.16-2.509,7.58,2.048c-.75.615-1.5,1.179-2.2,1.793-.4.307-1.057,1.281-1.454,1.69a27.738,27.738,0,0,1-3.173,3.125,64.686,64.686,0,0,1-6.654,4.558h1.41V274.4h14.146v3.534H352.607v16.594a25.887,25.887,0,0,1-.044,2.613,5.48,5.48,0,0,1-.573,1.894c-.529,1.179-2.248,1.64-3.261,1.9a21,21,0,0,1-4.363.665c-.309,0-1.366,0-1.586-.307a1.291,1.291,0,0,1-.133-.717c0-3.124-2.953-3.483-4.979-3.892v-.871c2.2.153,4.406.307,6.566.307,1.322,0,1.586-.256,1.586-1.792v-16.39H328.942V274.4Z"/><path class="b" d="M372.351,260.115a50.875,50.875,0,0,0,11.5-4.507l6.875,3.79a30.686,30.686,0,0,1-6.038,1.434v6.505h5.2v3.329h-5.2v3.893a29.4,29.4,0,0,1,4.848,2.1c1.939,1.076,2.909,2.2,3.261,3.535.7,2.407-.925,3.534-2.864,3.534-2.292,0-3.085-2.2-3.614-4.3a10.609,10.609,0,0,0-1.631-3.483V301.5h-6.213V286.851a28.4,28.4,0,0,1-5.289,8.656l-.484-.256a29.8,29.8,0,0,0,.881-3.432,76.146,76.146,0,0,0,1.543-10.96c.132-2.357.176-4.764.308-7.12h3.041v-3.073h-6.038v-3.329h6.038v-6.351c-2.027-.1-4.1-.154-6.126-.461Zm29.57,24.636V255.557h6.523v29.194h2.776v3.431h-2.776V301.5h-6.523V288.182H388.965v-3.431ZM391.213,260.32c2.247.359,7.535,1.434,8.813,3.944a3.484,3.484,0,0,1,.706,2.151,2.638,2.638,0,0,1-2.865,2.663c-1.5,0-2.732-1.28-3.3-2.868a25.51,25.51,0,0,0-1.058-2.561,10.594,10.594,0,0,0-2.556-2.868Zm0,11.473c2.732.358,9.519,1.946,9.519,6.4a2.71,2.71,0,0,1-2.777,2.664c-2.952,0-3.217-4.3-4.935-6.608a14.019,14.019,0,0,0-2.072-2.048Z"/><path class="b" d="M422.459,261.345v-5.686H428.8v5.686h3.481v3.482H428.8v8.2c1.057-.717,2.115-1.485,3.173-2.253l.573.307a42.012,42.012,0,0,1-3.746,5.992v19.77a6.924,6.924,0,0,1-.485,2.3c-.4,1.127-1.851,1.537-2.776,1.742a16.753,16.753,0,0,1-3.57.46c-2.424,0-.22-1.792-2.732-3.585a8.744,8.744,0,0,0-2.733-.922l.133-.717c1.41.1,2.864.154,4.319.154.837,0,1.5.051,1.5-1.178v-12.8a48.4,48.4,0,0,1-5.509,3.381l-.617-6.915a30.259,30.259,0,0,0,6.126-2.407V264.827h-5.421v-3.482Zm11.37,8.758,6.346-.052V263.24h-6.611v-3.227h6.611v-4.456h6.39v4.456h9.078v3.227h-9.078v6.811h1.013l2.027-2.253,6.39,2.1-2.335,2.253c-1.587,6.659-3.217,10.7-6.963,16.083a33.168,33.168,0,0,0,6.522,5.429c.925.512,1.939.973,2.909,1.434v.563a3.233,3.233,0,0,0-2.689,1.383,3.894,3.894,0,0,0-.661,1.741,7.37,7.37,0,0,0,.353,2.2l-.485.358a35.823,35.823,0,0,1-10.356-8.4c-1.058.922-2.16,1.844-3.305,2.663a39.533,39.533,0,0,1-10.312,5.276l-.353-.513c.97-.666,1.983-1.383,2.909-2.151a36.1,36.1,0,0,0,2.732-2.663,51.359,51.359,0,0,0,5.641-6.71,37.51,37.51,0,0,1-3.526-9.936c-.264-1.844-.441-3.687-.661-5.531h-1.586Zm13.132,3.329H436.913a41.275,41.275,0,0,0,5.862,10.756A35.141,35.141,0,0,0,446.961,273.432Z"/><path class="b" d="M461.153,274.661c1.807-3.227,3.393-9.424,3.878-13.265H460.58V258.22h17.055V261.4h-5.641c-1.366,4.148-2.2,6.453-5.024,9.629h2.468v2h2.556l1.454-1.741,6.082,1.28-1.675,1.895.044,23.253H472.17v-1.844h-2.732v1.844h-5.861V274.354c-1.014.871-2.072,1.69-3.129,2.458l-.441-.307A17.24,17.24,0,0,0,461.153,274.661Zm11.017,17.824V276.249h-2.732v16.236Zm6.346-18.131h3.129V260.269h-3.129v-3.227H499.1v3.227h-2.512v14.085h3.041v3.329h-3.041v23.509h-5.949V277.683h-3.261v5.941c0,5.736-.926,9.066-4.671,12.907a24.172,24.172,0,0,1-6.258,4.712l-.4-.461c.441-.512.882-.973,1.322-1.434a16.261,16.261,0,0,0,1.675-2.3c2.291-3.585,2.6-8.656,2.6-12.958v-6.4h-3.129Zm12.119,0V260.269h-3.261v14.085Z"/><path class="b" d="M514.7,288.234a36.21,36.21,0,0,0,.882-5.327H506.5v-3.483h9.387c.132-1.485.264-2.97.308-4.456l6.523-.051c-.133,1.486-.177,3.022-.353,4.507h5.6l1.763-2.458,6.566,1.741-1.9,2.254v13.675c0,1.024.264,1.28,1.1,1.28a2.362,2.362,0,0,0,1.013-.307c1.058-.717,2.909-6.966,3.35-8.553l.572.1c-.088,1.024-.264,2.049-.264,3.073,0,1.127.264,3.176,1.234,3.688.441.256,1.851.563,1.851,1.332a2.475,2.475,0,0,1-.309.973,17.57,17.57,0,0,1-1.366,2.612c-1.366,2.151-4.539,2.407-6.654,2.407-1.587,0-5.156,0-5.994-1.793a8.736,8.736,0,0,1-.793-3.534V282.907H521.97a41.312,41.312,0,0,1-1.19,5.634c-2.336,7.836-9.387,11.165-15.821,12.7l-.265-.512C509.322,298.119,513.288,294.226,514.7,288.234Zm-2.732-23.714c.044.615.088,1.229.088,1.844,0,2.612-1.366,4.046-3.041,4.046a2.9,2.9,0,0,1-3.041-2.663c0-1.537,1.631-4.4,2.292-6.146a10.2,10.2,0,0,0,.617-3.073l.529-.1a14.969,14.969,0,0,1,1.63,2.766h10.092c-2.291-1.229-.4-3.585-3.437-5.48l.176-.564c1.807.1,3.481-.871,5.156-.41,1.587.462,3.526,1.793,3.526,3.842a3.719,3.719,0,0,1-1.234,2.612h8.241l2.468-2.919,7.227,2.151c-.793.717-1.587,1.383-2.38,2.151-.661.666-1.19,1.639-1.807,2.407a19.473,19.473,0,0,1-5.773,4.61c-.132,0-.132-.513-.925-.513.352-1.434.661-3.073.881-4.558Zm10.532,1.588c-5.244,6.709-7.227,8.041-14.41,10.55l-.265-.409a21.729,21.729,0,0,0,7.889-10.244Zm9.7,10.141c-2.865,0-7.448.154-7.448-4.3V265.9H530.7V269.8c0,1.024.617,1.638,3.746,1.382a12.081,12.081,0,0,1,2.38,0c.088,1.435,0,3.995,0,5.071C535.763,276.351,534.265,276.249,532.194,276.249Z"/><path class="b" d="M550.219,260.73h6.655v1.946h7.359v-7.324h6.787v7.324h6.919l1.806-2.509,6.831,1.843-1.719,2.408v24.533h-6.7v-3.329H571.02V301.7h-6.787V285.622h-7.359v3.329h-6.655Zm14.014,5.275h-7.359v16.39h7.359Zm13.926,16.39v-16.39H571.02v16.39Z"/><path class="b" d="M597.727,268.72a60.8,60.8,0,0,1,3.085,7.785,21.345,21.345,0,0,1,.529,5.019,19.546,19.546,0,0,1-1.146,7.324c-.705,1.742-2.953,2.612-4.583,2.612a7.724,7.724,0,0,1-2.16-.409,2.358,2.358,0,0,1-1.41-2.459c0-2.253,1.5-4.917,2.38-6.863,2.115-4.763,2.38-7.631,2.732-12.907Zm11.678-4.917V292.69c0,2,1.411,2.458,2.865,2.458a4.46,4.46,0,0,0,1.983-.41c2.424-1.178,4.1-9.116,4.98-11.985l.661.1a33.824,33.824,0,0,0-.4,4.149c0,1.229.044,3.328.793,4.251.529.614,2.336,1.28,2.336,2.151a3.491,3.491,0,0,1-.264,1.126,8.767,8.767,0,0,1-3.878,5.122c-1.719,1.178-4.672,1.281-6.611,1.281-5.112,0-8.946-.973-8.946-7.837V263.8Zm-.969-8.451c2.335.973,4.98,1.69,7.271,2.817a7.918,7.918,0,0,1,3.878,3.739,9.914,9.914,0,0,1,.573,3.636,2.846,2.846,0,0,1-3,2.817c-2.952,0-3.657-3.021-4.671-5.634a21.811,21.811,0,0,0-1.278-2.56,22.914,22.914,0,0,0-3.261-4.354Zm15.027,13.419c2.688,3.124,6.17,6.454,7.536,10.5a33.743,33.743,0,0,1,1.19,4.148,17.032,17.032,0,0,1,.485,3.995c0,2.766-1.366,5.788-3.834,5.788a3.126,3.126,0,0,1-3.085-2.254c-.441-1.434-.353-4.814-.441-6.5-.176-3.893-.617-9.834-1.763-13.419l-.661-2.049Z"/><path class="b" d="M197.154,317.75c0-3.955,2.407-6.329,5.472-6.329a4.674,4.674,0,0,1,3.445,1.533l-1.038,1.22a3.227,3.227,0,0,0-2.374-1.088c-2.093,0-3.543,1.747-3.543,4.6,0,2.885,1.351,4.648,3.494,4.648a3.537,3.537,0,0,0,2.687-1.285l1.021,1.2A4.788,4.788,0,0,1,202.544,324C199.495,324,197.154,321.723,197.154,317.75Z"/><path class="b" d="M207.654,319.267c0-2.95,2.011-4.78,4.137-4.78,2.406,0,3.692,1.731,3.692,4.3a4.852,4.852,0,0,1-.083.956h-5.884a2.738,2.738,0,0,0,2.8,2.769,3.844,3.844,0,0,0,2.159-.676l.66,1.2a5.5,5.5,0,0,1-3.066.956C209.615,324,207.654,322.25,207.654,319.267Zm6.2-.824c0-1.566-.709-2.473-2.027-2.473a2.459,2.459,0,0,0-2.324,2.473Z"/><path class="b" d="M217.609,314.718h1.549l.149,1.252h.049a4.323,4.323,0,0,1,3-1.483c1.928,0,2.786,1.285,2.786,3.593v5.7h-1.9v-5.472c0-1.566-.462-2.192-1.533-2.192a3.1,3.1,0,0,0-2.225,1.236v6.428h-1.879Z"/><path class="b" d="M228.191,320.816v-4.582h-1.319v-1.418l1.4-.1.214-2.506h1.6v2.506h2.357v1.516h-2.357v4.6c0,1.087.38,1.648,1.319,1.648a2.716,2.716,0,0,0,.973-.214l.346,1.4a5.8,5.8,0,0,1-1.78.33C228.9,324,228.191,322.728,228.191,320.816Z"/><path class="b" d="M233.5,319.267c0-2.95,2.011-4.78,4.137-4.78,2.407,0,3.693,1.731,3.693,4.3a4.852,4.852,0,0,1-.083.956h-5.884a2.738,2.738,0,0,0,2.8,2.769,3.844,3.844,0,0,0,2.159-.676l.659,1.2a5.493,5.493,0,0,1-3.065.956C235.46,324,233.5,322.25,233.5,319.267Zm6.2-.824c0-1.566-.709-2.473-2.027-2.473a2.46,2.46,0,0,0-2.325,2.473Z"/><path class="b" d="M243.454,314.718H245l.148,1.631h.05a3.134,3.134,0,0,1,2.571-1.862,2.253,2.253,0,0,1,1.022.2l-.346,1.648a2.68,2.68,0,0,0-.907-.148c-.741,0-1.632.51-2.208,1.944v5.654h-1.879Z"/><path class="b" d="M258.3,312.163a2.454,2.454,0,0,0-.989-.231c-.807,0-1.2.528-1.2,1.632v1.154h1.83v1.516h-1.83v7.549h-1.9v-7.549H252.98v-1.418l1.237-.1V313.58c0-1.862.84-3.148,2.868-3.148a4.117,4.117,0,0,1,1.6.313Z"/><path class="b" d="M258.766,319.267c0-3.033,2.027-4.78,4.269-4.78s4.269,1.747,4.269,4.78c0,3-2.027,4.73-4.269,4.73S258.766,322.267,258.766,319.267Zm6.593,0c0-1.929-.89-3.214-2.324-3.214-1.418,0-2.308,1.285-2.308,3.214,0,1.912.89,3.181,2.308,3.181C264.469,322.448,265.359,321.179,265.359,319.267Z"/><path class="b" d="M269.529,314.718h1.55l.148,1.631h.049a3.134,3.134,0,0,1,2.572-1.862,2.249,2.249,0,0,1,1.021.2l-.346,1.648a2.678,2.678,0,0,0-.906-.148c-.742,0-1.632.51-2.209,1.944v5.654h-1.879Z"/><path class="b" d="M290.429,326.618a4.821,4.821,0,0,1-1.863.313,4.9,4.9,0,0,1-4.714-3c-2.62-.445-4.367-2.752-4.367-6.263,0-3.906,2.159-6.247,5.274-6.247s5.291,2.341,5.291,6.247c0,3.412-1.665,5.686-4.154,6.214a3.106,3.106,0,0,0,2.885,1.483,4.442,4.442,0,0,0,1.285-.181Zm-5.67-4.186c2.011,0,3.329-1.83,3.329-4.764,0-2.852-1.318-4.582-3.329-4.582s-3.313,1.73-3.313,4.582C281.446,320.6,282.748,322.432,284.759,322.432Z"/><path class="b" d="M292.292,320.421v-5.7h1.9v5.472c0,1.565.445,2.175,1.517,2.175.84,0,1.417-.395,2.175-1.351v-6.3h1.9v9.065h-1.55l-.148-1.368h-.049A3.8,3.8,0,0,1,295.061,324C293.132,324,292.292,322.728,292.292,320.421Z"/><path class="b" d="M302.1,321.377c0-1.945,1.648-2.951,5.423-3.363-.017-1.055-.4-1.978-1.731-1.978a4.991,4.991,0,0,0-2.621.923l-.708-1.285a6.934,6.934,0,0,1,3.659-1.187c2.258,0,3.3,1.434,3.3,3.84v5.456h-1.549l-.165-1.038h-.049A4.512,4.512,0,0,1,304.769,324,2.5,2.5,0,0,1,302.1,321.377Zm5.423.065v-2.225c-2.687.33-3.594,1.006-3.594,2.028,0,.89.61,1.252,1.418,1.252A3.2,3.2,0,0,0,307.522,321.442Z"/><path class="b" d="M312.1,314.718h1.549l.149,1.252h.049a4.323,4.323,0,0,1,3-1.483c1.928,0,2.785,1.285,2.785,3.593v5.7h-1.895v-5.472c0-1.566-.462-2.192-1.533-2.192a3.094,3.094,0,0,0-2.225,1.236v6.428H312.1Z"/><path class="b" d="M322.686,320.816v-4.582h-1.319v-1.418l1.4-.1.215-2.506h1.6v2.506h2.357v1.516h-2.357v4.6c0,1.087.379,1.648,1.319,1.648a2.706,2.706,0,0,0,.972-.214l.347,1.4a5.8,5.8,0,0,1-1.781.33C323.395,324,322.686,322.728,322.686,320.816Z"/><path class="b" d="M328.8,320.421v-5.7h1.9v5.472c0,1.565.445,2.175,1.517,2.175.84,0,1.417-.395,2.175-1.351v-6.3h1.9v9.065h-1.55l-.148-1.368h-.049A3.8,3.8,0,0,1,331.57,324C329.641,324,328.8,322.728,328.8,320.421Z"/><path class="b" d="M339.135,314.718h1.55l.148,1.269h.049a3.952,3.952,0,0,1,2.8-1.5,2.42,2.42,0,0,1,2.506,1.665,4.177,4.177,0,0,1,2.95-1.665c1.9,0,2.786,1.285,2.786,3.593v5.7h-1.9v-5.472c0-1.566-.494-2.192-1.516-2.192a3.025,3.025,0,0,0-2.044,1.236v6.428h-1.895v-5.472c0-1.566-.479-2.192-1.517-2.192a3.06,3.06,0,0,0-2.044,1.236v6.428h-1.879Z"/><path class="b" d="M358.535,311.652h7.187v1.6h-5.275v3.708h4.483v1.6h-4.483v5.225h-1.912Z"/><path class="b" d="M367.337,314.718h1.55l.148,1.631h.049a3.134,3.134,0,0,1,2.572-1.862,2.256,2.256,0,0,1,1.022.2l-.347,1.648a2.674,2.674,0,0,0-.906-.148c-.742,0-1.632.51-2.209,1.944v5.654h-1.879Z"/><path class="b" d="M373.255,319.267c0-3.033,2.027-4.78,4.269-4.78s4.268,1.747,4.268,4.78c0,3-2.027,4.73-4.268,4.73S373.255,322.267,373.255,319.267Zm6.593,0c0-1.929-.89-3.214-2.324-3.214-1.418,0-2.308,1.285-2.308,3.214,0,1.912.89,3.181,2.308,3.181C378.958,322.448,379.848,321.179,379.848,319.267Z"/><path class="b" d="M384.018,314.718h1.549l.149,1.252h.049a4.323,4.323,0,0,1,3-1.483c1.928,0,2.785,1.285,2.785,3.593v5.7h-1.895v-5.472c0-1.566-.462-2.192-1.533-2.192a3.094,3.094,0,0,0-2.225,1.236v6.428h-1.879Z"/><path class="b" d="M394.6,320.816v-4.582h-1.319v-1.418l1.4-.1.214-2.506h1.6v2.506h2.357v1.516h-2.357v4.6c0,1.087.379,1.648,1.319,1.648a2.706,2.706,0,0,0,.972-.214l.346,1.4a5.8,5.8,0,0,1-1.78.33C395.309,324,394.6,322.728,394.6,320.816Z"/><path class="b" d="M400.567,311.9a1.113,1.113,0,0,1,1.2-1.121,1.124,1.124,0,1,1-1.2,1.121Zm.263,2.819h1.879v9.065H400.83Z"/><path class="b" d="M404.918,319.267c0-2.95,2.011-4.78,4.137-4.78,2.406,0,3.692,1.731,3.692,4.3a4.854,4.854,0,0,1-.083.956H406.78a2.738,2.738,0,0,0,2.8,2.769,3.844,3.844,0,0,0,2.159-.676l.66,1.2a5.5,5.5,0,0,1-3.066.956C406.879,324,404.918,322.25,404.918,319.267Zm6.2-.824c0-1.566-.709-2.473-2.027-2.473a2.459,2.459,0,0,0-2.324,2.473Z"/><path class="b" d="M414.873,314.718h1.549l.149,1.631h.049a3.134,3.134,0,0,1,2.571-1.862,2.253,2.253,0,0,1,1.022.2l-.346,1.648a2.678,2.678,0,0,0-.906-.148c-.742,0-1.632.51-2.209,1.944v5.654h-1.879Z"/><path class="b" d="M420.56,322.745l.89-1.22a4.016,4.016,0,0,0,2.571,1.038c1.088,0,1.6-.527,1.6-1.22,0-.823-1.022-1.186-2.011-1.565-1.2-.462-2.588-1.105-2.588-2.637,0-1.517,1.22-2.654,3.214-2.654a4.773,4.773,0,0,1,2.951,1.071l-.89,1.171a3.394,3.394,0,0,0-2.028-.792c-.989,0-1.45.495-1.45,1.121,0,.775.939,1.071,1.928,1.434,1.269.478,2.67,1.039,2.67,2.753,0,1.516-1.2,2.752-3.444,2.752A5.575,5.575,0,0,1,420.56,322.745Z"/><path class="b" d="M432.493,319.267c0-3.033,2.027-4.78,4.269-4.78s4.269,1.747,4.269,4.78c0,3-2.027,4.73-4.269,4.73S432.493,322.267,432.493,319.267Zm6.593,0c0-1.929-.89-3.214-2.324-3.214-1.418,0-2.308,1.285-2.308,3.214,0,1.912.89,3.181,2.308,3.181C438.2,322.448,439.086,321.179,439.086,319.267Z"/><path class="b" d="M447.608,312.163a2.458,2.458,0,0,0-.989-.231c-.808,0-1.2.528-1.2,1.632v1.154h1.829v1.516h-1.829v7.549h-1.9v-7.549h-1.236v-1.418l1.236-.1V313.58c0-1.862.841-3.148,2.868-3.148a4.122,4.122,0,0,1,1.6.313Z"/><path class="b" d="M459.392,323.783l-2.752-4.895h-1.961v4.895h-1.912V311.652h3.972c2.5,0,4.384.89,4.384,3.511a3.376,3.376,0,0,1-2.538,3.477l2.967,5.143Zm-4.713-6.428h1.829c1.764,0,2.72-.725,2.72-2.192s-.956-1.978-2.72-1.978h-1.829Z"/><path class="b" d="M462.574,319.267c0-2.95,2.011-4.78,4.137-4.78,2.407,0,3.692,1.731,3.692,4.3a4.943,4.943,0,0,1-.082.956h-5.884a2.738,2.738,0,0,0,2.8,2.769,3.846,3.846,0,0,0,2.159-.676l.659,1.2a5.5,5.5,0,0,1-3.066.956C464.536,324,462.574,322.25,462.574,319.267Zm6.2-.824c0-1.566-.708-2.473-2.027-2.473a2.459,2.459,0,0,0-2.324,2.473Z"/><path class="b" d="M471.573,322.745l.89-1.22a4.018,4.018,0,0,0,2.572,1.038c1.088,0,1.6-.527,1.6-1.22,0-.823-1.021-1.186-2.01-1.565-1.2-.462-2.588-1.105-2.588-2.637,0-1.517,1.22-2.654,3.214-2.654a4.768,4.768,0,0,1,2.95,1.071l-.89,1.171a3.389,3.389,0,0,0-2.027-.792c-.989,0-1.45.495-1.45,1.121,0,.775.939,1.071,1.928,1.434,1.269.478,2.67,1.039,2.67,2.753,0,1.516-1.2,2.752-3.445,2.752A5.58,5.58,0,0,1,471.573,322.745Z"/><path class="b" d="M479.8,319.267c0-2.95,2.011-4.78,4.137-4.78,2.407,0,3.692,1.731,3.692,4.3a4.943,4.943,0,0,1-.082.956h-5.884a2.738,2.738,0,0,0,2.8,2.769,3.846,3.846,0,0,0,2.159-.676l.659,1.2a5.493,5.493,0,0,1-3.065.956C481.76,324,479.8,322.25,479.8,319.267Zm6.2-.824c0-1.566-.709-2.473-2.028-2.473a2.459,2.459,0,0,0-2.324,2.473Z"/><path class="b" d="M488.979,321.377c0-1.945,1.648-2.951,5.423-3.363-.017-1.055-.4-1.978-1.731-1.978a4.991,4.991,0,0,0-2.621.923l-.708-1.285A6.934,6.934,0,0,1,493,314.487c2.258,0,3.3,1.434,3.3,3.84v5.456h-1.549l-.165-1.038h-.049A4.51,4.51,0,0,1,491.649,324,2.5,2.5,0,0,1,488.979,321.377Zm5.423.065v-2.225c-2.687.33-3.593,1.006-3.593,2.028,0,.89.61,1.252,1.417,1.252A3.2,3.2,0,0,0,494.4,321.442Z"/><path class="b" d="M498.984,314.718h1.549l.149,1.631h.049a3.134,3.134,0,0,1,2.571-1.862,2.253,2.253,0,0,1,1.022.2l-.346,1.648a2.68,2.68,0,0,0-.907-.148c-.741,0-1.631.51-2.208,1.944v5.654h-1.879Z"/><path class="b" d="M504.9,319.267a4.455,4.455,0,0,1,4.484-4.78,3.891,3.891,0,0,1,2.653,1.038l-.939,1.237a2.378,2.378,0,0,0-1.632-.709c-1.516,0-2.6,1.285-2.6,3.214,0,1.912,1.038,3.181,2.555,3.181a3.109,3.109,0,0,0,1.978-.824l.774,1.253a4.419,4.419,0,0,1-2.934,1.12C506.78,324,504.9,322.267,504.9,319.267Z"/><path class="b" d="M514.066,310.647h1.879v3.477l-.066,1.8a4.22,4.22,0,0,1,2.934-1.434c1.928,0,2.785,1.285,2.785,3.593v5.7h-1.9v-5.472c0-1.566-.462-2.192-1.533-2.192a3.093,3.093,0,0,0-2.225,1.236v6.428h-1.879Z"/><path class="b" d="M537.421,324a9.3,9.3,0,0,1-2.884-1.335,5.369,5.369,0,0,1-3.61,1.335c-2.324,0-3.791-1.467-3.791-3.379,0-1.664,1.105-2.67,2.341-3.494a6.157,6.157,0,0,1-.791-2.736,2.861,2.861,0,0,1,2.95-2.967,2.38,2.38,0,0,1,2.571,2.505c0,1.6-1.351,2.605-2.686,3.561a15.6,15.6,0,0,0,2.884,3.016,9.84,9.84,0,0,0,1.632-3.362h1.747a13.1,13.1,0,0,1-2.11,4.268,8.241,8.241,0,0,0,2.225,1.039Zm-6.263-1.483a3.424,3.424,0,0,0,2.093-.824,17.128,17.128,0,0,1-3-3.28,2.886,2.886,0,0,0-1.3,2.093A2.04,2.04,0,0,0,531.158,322.514Zm-.363-6.231c1.055-.675,1.912-1.335,1.912-2.34,0-.659-.313-1.2-1.054-1.2a1.452,1.452,0,0,0-1.368,1.631A4.61,4.61,0,0,0,530.795,316.283Z"/><path class="b" d="M545.976,313.251h-3.561v-1.6h9.049v1.6h-3.576v10.532h-1.912Z"/><path class="b" d="M551.465,319.267c0-2.95,2.01-4.78,4.137-4.78,2.406,0,3.692,1.731,3.692,4.3a4.854,4.854,0,0,1-.083.956h-5.884a2.738,2.738,0,0,0,2.8,2.769,3.844,3.844,0,0,0,2.159-.676l.66,1.2a5.5,5.5,0,0,1-3.066.956C553.426,324,551.465,322.25,551.465,319.267Zm6.2-.824c0-1.566-.709-2.473-2.027-2.473a2.458,2.458,0,0,0-2.324,2.473Z"/><path class="b" d="M560.777,319.267a4.454,4.454,0,0,1,4.483-4.78,3.891,3.891,0,0,1,2.654,1.038l-.94,1.237a2.373,2.373,0,0,0-1.631-.709c-1.517,0-2.6,1.285-2.6,3.214,0,1.912,1.038,3.181,2.554,3.181a3.107,3.107,0,0,0,1.978-.824l.775,1.253a4.421,4.421,0,0,1-2.934,1.12C562.656,324,560.777,322.267,560.777,319.267Z"/><path class="b" d="M569.941,310.647h1.879v3.477l-.066,1.8a4.222,4.222,0,0,1,2.934-1.434c1.929,0,2.786,1.285,2.786,3.593v5.7h-1.9v-5.472c0-1.566-.462-2.192-1.534-2.192a3.1,3.1,0,0,0-2.225,1.236v6.428h-1.879Z"/><path class="b" d="M580.177,314.718h1.549l.149,1.252h.049a4.323,4.323,0,0,1,3-1.483c1.928,0,2.786,1.285,2.786,3.593v5.7h-1.9v-5.472c0-1.566-.462-2.192-1.533-2.192a3.1,3.1,0,0,0-2.225,1.236v6.428h-1.879Z"/><path class="b" d="M589.82,319.267c0-3.033,2.027-4.78,4.268-4.78s4.269,1.747,4.269,4.78c0,3-2.027,4.73-4.269,4.73S589.82,322.267,589.82,319.267Zm6.592,0c0-1.929-.89-3.214-2.324-3.214-1.417,0-2.307,1.285-2.307,3.214,0,1.912.89,3.181,2.307,3.181C595.522,322.448,596.412,321.179,596.412,319.267Z"/><path class="b" d="M600.583,321.657v-11.01h1.879v11.108c0,.512.23.693.461.693a1.313,1.313,0,0,0,.313-.033l.248,1.434a3.061,3.061,0,0,1-1.022.148C601.094,324,600.583,323.124,600.583,321.657Z"/><path class="b" d="M604.852,319.267c0-3.033,2.027-4.78,4.268-4.78s4.269,1.747,4.269,4.78c0,3-2.027,4.73-4.269,4.73S604.852,322.267,604.852,319.267Zm6.592,0c0-1.929-.89-3.214-2.324-3.214-1.417,0-2.307,1.285-2.307,3.214,0,1.912.89,3.181,2.307,3.181C610.554,322.448,611.444,321.179,611.444,319.267Z"/><path class="b" d="M614.955,325.464a2.4,2.4,0,0,1,1.319-1.978V323.4a1.667,1.667,0,0,1-.824-1.5,2.236,2.236,0,0,1,1.005-1.681v-.066a3.1,3.1,0,0,1-1.186-2.407,3.269,3.269,0,0,1,3.51-3.263,3.779,3.779,0,0,1,1.319.231h3.214v1.417h-1.731a2.454,2.454,0,0,1,.594,1.665,3.1,3.1,0,0,1-3.4,3.115,3.157,3.157,0,0,1-1.269-.28,1.2,1.2,0,0,0-.494.956c0,.544.362.89,1.516.89H620.2c2.143,0,3.263.659,3.263,2.208,0,1.748-1.846,3.165-4.747,3.165C616.538,327.854,614.955,327.046,614.955,325.464Zm6.676-.478c0-.758-.594-.989-1.7-.989h-1.368a5.731,5.731,0,0,1-1.22-.132,1.63,1.63,0,0,0-.774,1.319c0,.89.923,1.417,2.423,1.417C620.576,326.6,621.631,325.827,621.631,324.986Zm-1.138-7.236a1.726,1.726,0,1,0-3.428,0,1.728,1.728,0,1,0,3.428,0Z"/><path class="b" d="M629.344,324.327c-.708,1.945-1.664,3.247-3.576,3.247a3.214,3.214,0,0,1-1.138-.182l.363-1.483a2.439,2.439,0,0,0,.659.132c.989,0,1.566-.725,1.9-1.7l.181-.626-3.593-9h1.945l1.681,4.664c.264.808.544,1.714.824,2.555h.083l.708-2.555,1.451-4.664h1.846Z"/><path class="b" d="M176.468,288.8A45.866,45.866,0,0,1,173.9,304.8a30.03,30.03,0,0,1-2.757,5.641c-.239.376-.37.688.1.956,2.969,1.707,6.072,2.8,9.546,1.893a9.345,9.345,0,0,0,4.066-2.432c.266-.256.563-.581.563-.581l.846.622s-.17.41-.3.7c-2.056,4.6-4.928,8.414-9.883,10.184a13.566,13.566,0,0,1-10.265-.7c-1.109-.48-2.174-1.064-3.25-1.619a1.123,1.123,0,0,0-1.156-.107,42.919,42.919,0,0,1-13.214,3.846,50.447,50.447,0,0,1-19.365-.7,15.971,15.971,0,0,1-5.593-2.378c-3.19-2.2-4.051-5.191-2.476-8.742a20.088,20.088,0,0,1,4.292-5.925,54.89,54.89,0,0,1,10.79-8.279,90.206,90.206,0,0,1,23.176-9.976c1.024-.276,2.749-.661,3.79-.87a2.623,2.623,0,0,0,0-.663c-.39-5.38-1.053-10.722-3.167-15.734a12.817,12.817,0,0,0-10.021-8.109,14.166,14.166,0,0,0-9.646,1.818c-.293.166-1.132.721-1.132.721-.016-1.743-.02-7.437-.02-7.437s.235-.041.81-.175c11.054-2.567,20.763-.246,28.673,8.125,3.4,3.6,5.277,8.084,6.6,12.8A45.381,45.381,0,0,1,176.468,288.8Zm-42.787,31.263a50,50,0,0,0,14.9-2.522,28.16,28.16,0,0,0,5.27-2.3c.856-.508.85-.649.04-1.181-.864-.567-1.726-1.139-2.61-1.675a35.081,35.081,0,0,0-6.438-3.524,15.094,15.094,0,0,0-9.661.236,4.554,4.554,0,0,0-.66.256s-.952-.846-.894-.9a41.166,41.166,0,0,1,5.106-5.284,13.11,13.11,0,0,1,12.276-3.1,30.158,30.158,0,0,1,8.664,4.17c1.248.79,1.212.8,1.554-.592a62.731,62.731,0,0,0,1.574-15.474c-.008-1.277-.008-1.3-.008-1.3a90.9,90.9,0,0,0-33.708,16.821,26.18,26.18,0,0,0-6.429,7.38,6.88,6.88,0,0,0-1.089,4.047c.221,2.177,1.756,3.246,3.639,3.907C128.137,320.052,131.2,319.936,133.681,320.067Z"/><path class="b" d="M176.9,284.844a13.535,13.535,0,0,1,6.934.775,4.613,4.613,0,0,1,2.706,5.755,19.7,19.7,0,0,1-3.567,6.571,33.75,33.75,0,0,1-7.1,6.99.843.843,0,0,1-.627.183c.59-.535,1.175-1.074,1.769-1.6a36.448,36.448,0,0,0,8-10.058,8.958,8.958,0,0,0,.833-2.139c.648-2.72-.387-4.621-3.043-5.533A21.266,21.266,0,0,0,176.9,284.844Z"/></g></svg>