<svg xmlns="http://www.w3.org/2000/svg" width="25" height="24.999" viewBox="0 0 25 24.999"><defs><style>.a{fill:#1a1311;}</style></defs><g transform="translate(-1380.598 -91.077)"><path class="a" d="M1404.912,112.076l-5.736-5.736a10.994,10.994,0,0,1-3.315,3.314l5.737,5.737a2.344,2.344,0,1,0,3.314-3.315Z"/><path class="a" d="M1399.348,100.452a9.375,9.375,0,1,0-9.375,9.375A9.376,9.376,0,0,0,1399.348,100.452Zm-9.375,7.03a7.031,7.031,0,1,1,7.031-7.03A7.037,7.037,0,0,1,1389.973,107.482Z"/><path class="a" d="M1384.5,100.452h1.562a3.911,3.911,0,0,1,3.907-3.905V94.983A5.477,5.477,0,0,0,1384.5,100.452Z"/></g></svg>